<?xml version="1.0" encoding="utf-8"?>
<!DOCTYPE svg PUBLIC "-//W3C//DTD SVG 20010904//EN" "http://www.w3.org/TR/2001/REC-SVG-20010904/DTD/svg10.dtd">
<svg version="1.0" xmlns="http://www.w3.org/2000/svg" width="8441px" height="1262px" viewBox="0 0 8441 1262" preserveAspectRatio="xMidYMid meet">
 <g fill="#ffffff">
  <path d="M613.7 1257.5 c0 -1.3 -0.7 -2.4 -1.6 -2.4 -0.8 0 -1.6 -1.1 -1.6 -2.4 0 -1.3 -1.1 -2.4 -2.4 -2.4 -1.3 0 -2.4 -1.1 -2.4 -2.4 0 -1.5 -1.1 -2.9 -2.4 -3.4 -1.3 -0.7 -2.4 -2.1 -2.4 -3.4 0 -3.4 -6.2 -8.6 -10.1 -8.6 -4.1 0 -7.8 -3.8 -7.8 -8 0 -2 -1 -3.4 -2.4 -3.4 -1.3 0 -2.4 -1.5 -2.4 -3.3 0 -1.8 -0.7 -3.3 -1.6 -3.3 -0.8 0 -1.6 -1.3 -1.6 -3.1 0 -1.6 -1.8 -4.9 -4.1 -7.3 -2.3 -2.4 -4.1 -5.5 -4.1 -6.9 0 -1.1 -0.7 -2.3 -1.3 -2.3 -0.8 0 -2.3 -2.6 -3.6 -5.7 -1.3 -3.1 -3.1 -5.7 -4.1 -5.7 -1 0 -2.8 -2.6 -4.1 -5.7 -1.1 -3.1 -3.1 -5.9 -4.4 -6.4 -1.1 -0.5 -2.1 -1.6 -2.1 -2.6 0 -1.6 -3.3 -6 -8.5 -11.8 -1.6 -1.6 -2.9 -3.3 -2.9 -3.8 0 -0.5 -1.5 -2.4 -3.3 -4.4 -1.8 -2 -3.3 -4.6 -3.3 -5.7 0 -1.1 -1.1 -2.1 -2.4 -2.1 -1.3 0 -2.4 -1.1 -2.4 -2.4 0 -1.3 -0.7 -2.4 -1.6 -2.4 -0.8 0 -1.6 -0.8 -1.6 -1.8 0 -1.1 -1.8 -3.6 -4.1 -5.7 -2.3 -2.1 -4.1 -4.6 -4.1 -5.5 0 -0.8 -0.7 -1.6 -1.3 -1.6 -0.7 0 -2.1 -2.1 -3.1 -4.9 -1 -2.6 -2.9 -4.9 -4.4 -4.9 -1.5 0 -2.6 -1 -2.6 -2.1 0 -1.1 -2.6 -5.2 -5.7 -8.8 -3.1 -3.8 -5.7 -7.2 -5.7 -7.8 0 -0.7 -1.8 -2.9 -4.1 -5.1 -2.3 -2.1 -4.1 -4.2 -4.1 -4.9 0 -1.6 -10 -10.4 -11.8 -10.4 -1.6 0 -4.6 -2.3 -11.3 -8.5 -2.4 -2.6 -5.4 -4.6 -6.4 -4.6 -0.8 0 -1.6 -1.1 -1.6 -2.4 0 -1.3 -0.7 -2.4 -1.6 -2.4 -0.8 0 -2 -1.8 -2.6 -4.1 -0.5 -2.3 -1.6 -4.1 -2.4 -4.1 -2 0 -8 -6.2 -8 -8.2 0 -0.8 -0.7 -1.6 -1.6 -1.6 -0.8 0 -1.6 -1.1 -1.6 -2.4 0 -1.3 -0.7 -2.4 -1.6 -2.4 -0.8 0 -1.6 -1.1 -1.6 -2.4 0 -1.3 -1 -2.4 -2 -2.6 -1.1 0 -5.7 -4.7 -10.3 -10.4 -4.4 -5.7 -9.1 -10.4 -10.1 -10.6 -1.1 0 -2.1 -1 -2.1 -2.1 0 -1.1 -1.5 -3.1 -3.3 -4.4 -1.8 -1.3 -3.3 -3.3 -3.3 -4.4 0 -1.1 -1 -2.1 -2.1 -2.1 -1.1 0 -3.4 -2 -5.2 -4.4 -1.8 -2.4 -5.2 -6.5 -7.7 -9 -2.6 -2.4 -4.6 -5.2 -4.6 -6.2 0 -0.8 -1.1 -1.6 -2.4 -1.6 -1.3 0 -2.4 -0.7 -2.4 -1.6 0 -0.8 -9.8 -11.4 -21.5 -23.5 -11.9 -12.1 -25.1 -25.5 -29.4 -29.9 -12.1 -12.4 -41.9 -41.3 -42.8 -41.3 -0.3 0 -5.1 -4.2 -10.4 -9.3 -5.2 -5.2 -11.9 -11.4 -14.9 -13.9 -2.8 -2.4 -5.1 -5.7 -5.1 -7 0 -1.3 -1.1 -2.4 -2.6 -2.4 -1.3 0 -4.7 -2.1 -7.5 -4.9 -2.6 -2.6 -5.1 -4.9 -5.5 -4.9 -0.3 0 -3.6 -2.9 -7.2 -6.5 -3.6 -3.6 -7.2 -6.5 -7.8 -6.5 -0.8 0 -2.3 -1.8 -3.3 -4.1 -1 -2.3 -2.9 -4.1 -4.2 -4.1 -1.1 0 -5.7 -3.3 -9.8 -7.3 -4.2 -4.1 -8.5 -7.3 -9.5 -7.3 -1.8 0 -9.5 -8.2 -9.5 -10.1 0 -0.8 -1.1 -1.3 -2.4 -1.3 -1.3 0 -3.3 -1.5 -4.4 -3.3 -1.1 -1.8 -2.8 -3.3 -3.8 -3.3 -1 0 -3.4 -2.1 -5.7 -4.9 -2.3 -2.6 -4.9 -4.9 -5.9 -4.9 -1 0 -4.1 -2.1 -6.9 -4.9 -2.9 -2.6 -5.9 -4.9 -6.7 -4.9 -0.8 0 -1.8 -1.5 -2.3 -3.4 -0.5 -2 -1.6 -2.9 -2.4 -2.4 -0.8 0.5 -2.9 -0.3 -4.6 -2 -1.6 -1.5 -6 -4.9 -9.6 -7.7 -3.6 -2.6 -8 -6 -9.6 -7.7 -1.8 -1.6 -4.6 -3.3 -6.2 -3.9 -1.6 -0.5 -2.9 -1.6 -2.9 -2.4 0 -0.8 -1.1 -1.5 -2.4 -1.5 -1.3 0 -2.4 -1 -2.4 -2.3 0 -1.3 -2.1 -3.1 -4.9 -4.1 -2.6 -0.8 -4.9 -2.4 -4.9 -3.3 0 -1 -1.1 -1.8 -2.4 -1.8 -1.3 0 -2.4 -0.7 -2.4 -1.3 0 -0.7 -2.4 -2.6 -5.2 -4.4 -2.9 -1.6 -7.5 -5.1 -10 -7.7 -2.6 -2.4 -5.7 -4.6 -7 -4.6 -1.3 0 -2.8 -1 -3.3 -2.1 -0.3 -1.1 -4.4 -4.2 -8.8 -6.9 -4.6 -2.6 -8.2 -5.4 -8.2 -6 0 -0.7 -1.1 -1.3 -2.4 -1.3 -1.5 0 -2.9 -1.1 -3.4 -2.4 -0.7 -1.3 -2 -2.4 -3.3 -2.4 -1.3 0 -2.3 -0.7 -2.3 -1.6 0 -0.8 -1.8 -2 -4.1 -2.6 -2.3 -0.5 -4.1 -1.8 -4.1 -2.6 0 -0.8 -1 -1.3 -2 -0.8 -1.1 0.3 -4.2 -1.6 -6.9 -4.4 -2.6 -2.8 -5.4 -4.9 -6.2 -4.7 -0.7 0.3 -1.3 -0.2 -1.3 -1.1 0 -2.4 -5.4 -8.2 -6.9 -7.2 -0.7 0.5 -1.3 -0.7 -1.3 -2.6 0 -2 -0.7 -2.9 -1.6 -2.4 -1 0.7 -1.6 -4.6 -1.6 -14.7 0 -10.1 0.7 -15.3 1.6 -14.7 1 0.7 1.6 -1.8 1.6 -6.2 0 -5.1 0.8 -7.7 2.4 -8.3 1.3 -0.5 2.4 -2.1 2.4 -3.4 0 -1.5 0.8 -2.1 1.6 -1.6 1 0.5 1.6 0 1.6 -1.3 0 -1.1 1.8 -3.3 4.1 -4.4 2.3 -1.1 4.1 -2.8 4.1 -3.6 0 -0.7 2.1 -1.3 4.7 -1.3 2.8 0 5.4 -0.7 5.9 -1.6 0.5 -1 3.1 -1.6 5.7 -1.6 2.4 0 4.9 -1.1 5.5 -2.4 0.5 -1.3 2 -2.4 3.4 -2.4 1.3 0 2.4 -0.7 2.4 -1.3 0 -0.8 3.6 -3.4 8.2 -5.9 4.4 -2.4 8.2 -5.1 8.2 -5.7 0 -0.7 2 -2.3 4.4 -3.6 2.6 -1.1 6.2 -3.8 8 -5.7 2 -2 5.7 -4.7 8.6 -6.2 2.8 -1.5 5.1 -3.4 5.1 -4.2 0 -1 0.8 -1.6 1.6 -1.6 1.5 0 10.6 -5.7 13.1 -8.2 0.5 -0.5 3.8 -2.9 7.3 -5.5 3.6 -2.6 7.8 -6 9.3 -7.3 4.9 -4.6 7.7 -6.7 8.6 -6.7 1.1 0 2.4 -1.1 10.6 -8.2 3.1 -2.6 6.2 -4.9 6.7 -4.9 0.7 0 4.2 -2.9 8 -6.5 3.8 -3.8 9 -7.7 11.6 -9.1 2.6 -1.3 4.7 -3.1 4.7 -3.9 0 -0.8 1.8 -2 4.1 -2.6 2.3 -0.5 4.1 -1.8 4.1 -2.6 0 -2 2.3 -4.2 10.6 -10.3 3.6 -2.8 7 -5.5 7.7 -6.5 0.7 -0.8 1.3 -1 1.3 -0.3 0 0.7 2.8 -1.5 6.2 -4.9 9 -9 28.2 -26.6 36.4 -33.1 3.9 -3.1 8.6 -7.3 10.8 -9.3 2 -2.1 4.2 -3.8 4.9 -3.8 0.8 0 2.3 -1.5 3.4 -3.3 1.1 -1.8 3.1 -3.3 4.4 -3.3 1.3 0 2.4 -1 2.4 -2 0 -1.1 5.2 -6.9 11.6 -12.7 6.4 -5.9 13.7 -12.6 16.3 -15 2.6 -2.3 4.7 -5.1 4.7 -6 0 -1 1.1 -1.8 2.4 -1.8 1.3 0 3.3 -1.5 4.4 -3.3 1.1 -1.8 2.8 -3.3 3.4 -3.3 2 0 6 -4.4 6 -6.4 0 -1 1 -1.8 2.1 -1.8 1.1 0 3.4 -2 5.2 -4.4 4.2 -5.7 12.4 -13.5 14 -13.5 0.8 0 1.5 -1.1 1.5 -2.4 0 -1.3 0.8 -2.4 1.8 -2.4 2 0 9.6 -8.2 9.6 -10.1 0 -0.8 1.1 -1.3 2.4 -1.3 1.3 0 2.4 -0.7 2.4 -1.5 0 -2 11.3 -13.2 13.2 -13.2 0.8 0 1.5 -0.8 1.5 -1.6 0 -1 3.9 -5.5 8.6 -10.4 14.2 -14.5 25.6 -27.3 25.6 -28.7 0 -0.7 1.6 -1.6 3.8 -2.1 2 -0.7 6.5 -5.1 10.1 -10.1 3.6 -4.9 7 -9 7.8 -9 0.7 0 1.1 -1.1 1.1 -2.4 0 -1.3 0.8 -2.4 1.8 -2.4 1.6 0 6.4 -3.9 6.4 -5.4 0 -2 9.1 -10.9 10.9 -10.9 1.1 0 2.1 -1.1 2.1 -2.4 0 -1.5 2.3 -4.7 4.9 -7.3 2.8 -2.6 4.9 -5.2 4.9 -5.7 0 -0.5 1.8 -2.6 4.1 -4.7 2.3 -2.1 4.1 -4.4 4.1 -5.2 0 -0.8 1.5 -2.4 3.3 -3.6 1.8 -1.1 3.3 -3.1 3.3 -4.4 0 -1.3 1.1 -2.4 2.4 -2.4 1.3 0 2.4 -0.8 2.4 -1.8 0 -1 2.6 -4.1 5.7 -7 3.1 -3.1 5.7 -6 5.7 -7 0 -0.8 2.1 -2.6 4.7 -4.2 2.6 -1.5 5.2 -4.6 5.7 -6.9 0.7 -2.3 1.8 -4.1 2.6 -4.1 1 0 1.6 -1.1 1.6 -2.4 0 -1.3 1.1 -2.4 2.4 -2.4 1.3 0 2.4 -0.8 2.4 -1.6 0 -1 2 -3.8 4.6 -6.4 6.4 -6.5 10.1 -11.4 10.1 -13.2 0 -0.8 1.5 -2.3 3.1 -3.3 1.8 -0.8 3.6 -3.8 4.2 -6.5 0.7 -2.6 1.8 -4.9 2.6 -4.9 0.8 0 1.5 -1.5 1.5 -3.1 0 -1.6 1.1 -3.4 2.4 -4.1 1.3 -0.5 2.4 -2 2.4 -3.4 0 -1.3 0.8 -2.4 1.6 -2.4 1 0 1.6 -1 1.6 -2.3 0 -1.3 1.1 -2.6 2.4 -3.3 1.3 -0.5 2.4 -2.4 2.4 -4.2 0 -1.8 0.7 -3.3 1.3 -3.3 0.8 0 2.3 -2.6 3.6 -5.7 1.1 -3.1 3.1 -5.9 4.4 -6.4 1.1 -0.5 2.1 -2 2.1 -3.4 0 -1.3 0.8 -2.4 1.6 -2.4 1 0 1.6 -1.1 1.6 -2.4 0 -1.3 0.7 -2.4 1.3 -2.4 0.8 0 2.8 -2.9 4.4 -6.5 1.6 -3.6 3.6 -6.5 4.4 -6.5 0.7 0 1.3 -1.5 1.3 -3.3 0 -1.8 0.8 -3.3 1.6 -3.3 1 0 1.6 -1.5 1.6 -3.3 0 -1.8 1 -3.3 2.1 -3.3 1.1 0 3.1 -2.6 4.4 -5.7 1.1 -3.1 3.1 -5.9 4.4 -6.4 1.1 -0.5 2.1 -1.8 2.1 -2.9 0 -1.1 1.5 -3.9 3.3 -6.2 1.8 -2.3 3.3 -5.2 3.3 -6.5 0 -4.2 6.5 -6.9 21.1 -8.2 15 -1.3 29.9 0 30.8 3.1 0.3 1 2.1 1.8 3.9 1.8 3.4 0 7.8 3.6 7.8 6.4 0 1 0.8 1.8 1.6 1.8 1 0 1.6 2 1.6 4.2 0 2.6 1.8 5.9 4.1 8.2 2.3 2.1 4.1 4.6 4.1 5.5 0 0.8 0.8 1.6 1.6 1.6 1 0 1.6 1.1 1.6 2.4 0 1.5 1.1 2.9 2.4 3.4 1.3 0.7 2.4 2 2.4 3.3 0 1.3 0.8 2.3 1.6 2.3 1 0 1.6 1.1 1.6 2.4 0 1.3 1.1 2.4 2.4 2.4 1.3 0 2.4 1.1 2.4 2.4 0 1.3 1.5 3.9 3.3 5.7 1.8 1.8 3.3 3.8 3.3 4.2 0 0.7 1.8 2.8 4.1 4.9 2.3 2.1 4.1 4.6 4.1 5.5 0 1 2 3.9 4.6 6.5 2.4 2.4 6.7 7.2 9.6 10.4 2.9 3.3 6 5.9 7 5.9 0.8 0 1.6 0.8 1.6 1.8 0 1.1 2.6 4.2 5.7 7.3 3.1 2.9 5.7 5.7 5.7 6.2 0 1 3.9 5.9 7.8 10 1 1.3 2 2.9 2 3.9 0 1 0.8 1.8 1.6 1.8 1.8 0 8.2 5.9 8.2 7.5 0 0.7 2.6 3.6 5.7 6.7 3.1 3.1 5.7 6.2 5.7 7 0 1 0.7 1.6 1.3 1.6 0.8 0 2.3 2 3.4 4.4 1.8 3.9 3.6 6.2 12.1 15.3 1.5 1.6 2.8 3.9 2.8 4.7 0 1 0.8 1.6 1.6 1.6 1 0 1.6 0.8 1.6 1.8 0 1.1 1.6 3.4 3.8 5.4 2 2 4.6 5.4 5.9 8 1.3 2.4 2.9 4.4 3.8 4.4 0.7 0 1.3 1.1 1.3 2.4 0 1.5 1.1 2.9 2.4 3.4 1.3 0.7 2.4 2 2.4 3.3 0 1.3 0.8 2.3 1.6 2.3 1 0 1.6 1.1 1.6 2.4 0 1.3 0.8 2.4 1.6 2.4 1 0 1.6 1.1 1.6 2.4 0 1.5 1.1 2.9 2.4 3.4 1.3 0.7 2.4 2 2.4 3.3 0 1.3 0.8 2.3 1.6 2.3 1 0 1.6 1.1 1.6 2.4 0 1.5 1.1 2.9 2.4 3.4 1.3 0.7 2.4 2.1 2.4 3.4 0 2.1 106.4 109.8 108.5 109.8 0.5 0 3.3 2.1 6.2 4.9 2.9 2.6 5.7 4.9 6.4 4.9 0.7 0 4.4 3.1 8.5 7 7.3 7.2 19.6 17.5 23 19.4 1 0.7 4.9 3.9 8.5 7.3 6.9 6.7 18 15.7 20.2 16.5 0.8 0.3 1.5 1.6 1.5 2.8 0 1.3 3.6 4.2 8.2 6.9 4.4 2.4 8.2 5.1 8.2 5.9 0 0.7 1 1.1 2.1 1.1 1.3 0 3.1 1.8 4.1 3.9 1 2.1 3.3 4.4 5.1 5.1 2 0.5 3.4 1.8 3.4 2.6 0 0.8 0.8 1.5 1.8 1.5 1 0 2.6 1 3.9 2.1 1.1 1 6 5.2 10.8 9.3 4.7 4.1 11.3 10 14.4 13.1 3.3 3.1 6.4 5.4 7.2 5.2 0.7 -0.2 1.1 0.5 1.1 1.3 0 1 0.8 1.6 1.6 1.6 1.8 0 4.1 1.6 10.6 7.8 2.1 2 4.6 3.6 5.2 3.6 0.8 0 2.4 1.5 3.8 3.3 1.3 1.8 2.9 3.3 3.8 3.3 0.7 0 2.9 1.5 4.9 3.4 9.5 8.8 16.8 14.5 18.6 14.5 1 0 2.4 1.5 2.9 3.4 0.7 1.8 3.3 4.1 5.9 5.1 2.6 0.8 4.7 2.3 4.7 3.1 0 0.8 1.1 1.5 2.4 1.5 1.5 0 2.9 1.1 3.4 2.4 0.7 1.3 1.8 2.4 2.9 2.4 1 0 2.9 1.5 4.2 3.3 1.3 1.8 3.3 3.3 4.4 3.3 1.1 0 3.8 1.8 6 4.1 2.3 2.3 4.9 4.1 5.9 4.1 0.8 0 1.6 1 1.6 2.1 0 1 2 2.9 4.6 3.9 2.4 1.1 7 4.2 10.1 7 3.1 2.6 6.2 4.9 6.9 4.9 0.5 0 3.1 2 5.7 4.6 2.4 2.4 6.5 5.4 9.1 6.7 2.4 1.3 4.4 2.9 4.4 3.6 0 0.7 3.4 3.3 7.7 5.7 4.4 2.4 9.6 6.2 11.9 8.3 2.3 2.1 4.9 3.8 6 3.8 1.1 0 2.1 0.8 2.1 1.8 0 2.3 4.1 6.4 6.4 6.4 1 0 1.8 0.8 1.8 1.6 0 1 2 3.9 4.6 6.5 9.3 10 13.4 16.3 13.4 20.4 0 1.5 1.1 2.9 2.4 3.4 1.6 0.7 2.4 3.4 2.4 8.8 0 5.4 -0.8 8.2 -2.4 8.8 -1.3 0.5 -2.4 2.3 -2.4 3.9 0 4.7 -16.2 23.2 -20.6 23.2 -1.3 0 -2.8 1.1 -3.3 2.4 -0.7 1.3 -1.8 2.4 -2.6 2.4 -1 0 -3.9 1.8 -6.9 4.1 -2.8 2.3 -5.9 4.7 -6.9 5.5 -1 0.8 -3.3 2 -5.2 2.4 -2 0.7 -3.6 2 -3.6 2.8 0 0.8 -1 1.5 -2 1.5 -1.1 0 -4.6 2.6 -7.7 5.7 -3.1 3.1 -6.5 5.7 -7.7 5.7 -1.1 0 -2.3 0.5 -2.6 1.3 -0.2 0.7 -4.6 4.1 -9.5 7.7 -4.9 3.6 -9.3 6.9 -9.8 7.5 -0.5 0.5 -2.9 2.1 -5.7 3.6 -2.6 1.3 -6 4.1 -7.3 5.9 -1.3 2 -3.3 3.4 -4.4 3.4 -1.1 0 -3.8 1.8 -6 4.1 -2.3 2.3 -4.7 4.1 -5.5 4.1 -1 0 -2 1.1 -2.6 2.4 -0.5 1.3 -2 2.4 -3.4 2.4 -1.3 0 -2.4 0.7 -2.4 1.5 0 0.8 -2.1 2.3 -4.7 3.1 -2.6 1 -5.2 3.1 -5.7 4.7 -0.8 2.8 -4.6 5.4 -10.9 7.8 -1.5 0.7 -3.6 2.8 -4.7 5.1 -1.1 2.1 -3.4 4.2 -4.9 4.7 -1.6 0.5 -5.2 3.1 -8 5.7 -2.8 2.8 -5.4 4.9 -5.9 4.9 -0.8 0 -6.4 4.2 -10.9 8.6 -1.6 1.5 -3.4 2.8 -3.9 2.8 -1.6 0 -5.5 4.6 -5.5 6.4 0 1 -1 1.8 -2.1 1.8 -1.3 0 -4.1 1.5 -6.2 3.4 -10.6 9.1 -12.4 10.4 -14.7 10.9 -1.3 0.3 -2.6 1.3 -2.9 2.1 -0.7 2 -5.1 6.2 -15.7 15.3 -8.3 7 -12.2 10.4 -20.2 17.6 -2.8 2.4 -5.7 4.4 -6.4 4.4 -0.8 0 -2.4 1.8 -3.6 4.1 -1.1 2.3 -2.8 4.1 -3.6 4.1 -0.8 0 -3.6 2.3 -6.2 4.9 -2.6 2.8 -5.5 4.9 -6.5 4.9 -0.8 0 -1.6 0.7 -1.6 1.3 0 1.8 -3.9 5.7 -16.3 16.6 -5.5 4.9 -16.3 15 -23.8 22.5 -7.7 7.3 -14.5 13.4 -15.3 13.4 -1 0 -1.6 0.8 -1.6 1.8 0 2.1 -4.1 6.4 -6.2 6.4 -0.8 0 -2.4 1.8 -3.6 4.1 -1.1 2.3 -3.1 4.1 -4.4 4.1 -1.1 0 -2.1 0.7 -2.1 1.3 0 2.1 -10.9 13.4 -12.9 13.4 -1 0 -1.8 0.7 -1.8 1.5 0 0.8 -7.8 9.6 -17.5 19.4 -22 22.2 -31.5 32.8 -31.5 34.8 0 0.8 -0.8 1.5 -1.8 1.5 -1 0 -2.8 1 -4.1 2.3 -1.3 1.3 -2.3 3.1 -2.3 4.1 0 1 -1.1 1.8 -2.4 1.8 -1.5 0 -3.4 1.8 -4.4 4.1 -1 2.3 -2.4 4.1 -3.3 4.1 -0.7 0 -1.3 0.8 -1.3 1.8 0 1.1 -2.6 4.1 -5.7 6.9 -3.1 2.6 -5.7 5.4 -5.7 6 0 0.7 -3.9 5.2 -8.5 10.1 -4.7 4.9 -10.8 11.8 -13.5 15 -2.6 3.4 -5.9 7 -6.9 8.3 -1.1 1.1 -2.1 2.9 -2.1 3.9 0 1 -1.8 2.1 -4.1 2.8 -2.6 0.7 -4.7 2.9 -6 6.5 -1 3.1 -2.8 5.5 -3.8 5.5 -1 0 -3.1 2.1 -4.6 4.9 -1.6 2.6 -5.1 6.9 -7.7 9.6 -2.8 2.6 -4.9 5.5 -4.9 6.5 0 1 -0.7 1.8 -1.6 1.8 -0.8 0 -1.6 1.1 -1.6 2.4 0 1.3 -1.1 2.4 -2.4 2.4 -1.3 0 -2.4 0.8 -2.4 1.8 0 1 -2.1 3.9 -4.9 6.5 -2.6 2.8 -6 7 -7.7 9.6 -1.5 2.8 -3.4 4.9 -4.1 4.9 -0.7 0 -1.3 1.1 -1.3 2.4 0 1.3 -1.1 2.4 -2.4 2.4 -1.3 0 -2.4 1.1 -2.4 2.4 0 1.3 -2.8 5.1 -6.4 8.5 -3.4 3.6 -6.7 8 -7.3 10 -0.7 2 -2 3.6 -2.8 3.6 -0.8 0 -1.5 1.1 -1.5 2.4 0 1.5 -1.1 2.9 -2.4 3.4 -1.3 0.7 -2.4 2 -2.4 3.3 0 1.3 -0.7 2.3 -1.6 2.3 -0.8 0 -1.6 0.8 -1.6 1.6 0 1 -1.8 3.4 -4.1 5.5 -2.3 2.1 -4.1 4.2 -4.1 4.9 0 0.5 -1.5 2.4 -3.3 4.2 -1.8 1.8 -3.3 4.2 -3.3 5.5 0 1.1 -1.5 2.6 -3.3 3.1 -1.6 0.5 -3.6 2.8 -4.2 5.4 -0.7 2.4 -2.9 6.2 -5.1 8.2 -2 2 -3.8 4.4 -3.8 5.4 0 1 -1.1 2.3 -2.4 2.8 -1.3 0.7 -2.4 2 -2.4 3.3 0 1.3 -0.7 2.3 -1.6 2.3 -0.8 0 -1.6 0.8 -1.6 1.8 0 1 -3.4 4.9 -7.5 9 l-7.7 7.2 -17.6 0 c-14.7 0 -17.8 -0.5 -17.8 -2.4z m42.6 -165.7 c3.8 -1.6 5.4 -1.6 6.9 -0.2 2.6 2.6 4.1 2.3 5.2 -1.5 0.5 -1.8 2.8 -3.8 5.1 -4.2 2.1 -0.5 3.9 -1.6 3.9 -2.3 0 -0.8 1.3 -1.8 2.9 -2.3 1.5 -0.5 4.9 -2.8 7.5 -5.1 2.6 -2.3 5.4 -4.1 6.2 -4.1 0.7 0 1.3 -1.1 1.3 -2.4 0 -2.9 2.8 -3.3 3.6 -0.5 1 2.8 4.6 0 4.6 -3.4 0 -1.6 1.8 -3.9 4.1 -5.1 2.3 -1.1 4.1 -2.8 4.1 -3.6 0 -0.7 0.7 -1.3 1.5 -1.3 2.9 0 13.1 -7.3 13.2 -9.3 0 -1.1 1.1 -2.1 2.4 -2.1 1.3 0 2.4 -0.5 2.4 -1.3 0 -0.7 2.6 -2.6 5.7 -4.2 3.1 -1.8 5.7 -3.8 5.7 -4.4 0 -0.7 1.3 -1.6 3.1 -2.3 1.6 -0.5 5.4 -3.1 8 -5.7 2.9 -2.8 5.5 -4.1 6 -3.1 1.5 2.3 5.7 -1.5 5.7 -5.2 0 -1.6 1.3 -3.3 3.1 -3.9 1.6 -0.5 5.9 -3.6 9.6 -7 3.6 -3.3 8.6 -7.5 11.1 -9.3 2.4 -1.8 5.4 -4.2 6.7 -5.4 1.1 -1.1 2.8 -1.6 3.8 -1.1 0.8 0.5 1.6 0.2 1.6 -0.8 0 -2.1 7.3 -9.8 9.5 -9.8 0.8 0 4.2 -3.1 7.5 -6.7 3.3 -3.8 5.9 -6.2 5.9 -5.4 0 0.8 1.8 -0.5 3.9 -2.9 2.1 -2.6 4.6 -4.6 5.7 -4.6 1 0 1.8 -0.8 1.8 -1.6 0 -1 1.3 -2.3 2.9 -2.8 3.6 -1.5 6.9 -4.7 6.9 -6.9 0 -1 1.1 -1.8 2.4 -1.8 1.3 0 2.4 -0.7 2.4 -1.6 0 -0.8 0.7 -1.6 1.6 -1.6 1.5 0 9.8 -7.7 9.8 -9 0 -1.1 8.3 -9 9.5 -9 0.7 0 2.3 -1.5 3.6 -3.3 1.3 -1.8 2.9 -3.3 3.8 -3.3 2.1 0 17.5 -16 17.5 -18.1 0 -1.1 0.5 -1.5 1 -1 0.7 0.7 3.6 -1.5 6.5 -4.6 2.9 -3.1 6 -5.7 6.9 -5.7 0.8 0 2.3 -1.8 3.4 -3.9 1.1 -2.1 4.1 -4.9 6.5 -6 5.2 -2.8 8.3 -5.5 8.3 -7.8 0 -0.8 4.7 -6.4 10.6 -12.2 5.9 -5.9 10.6 -11.4 10.6 -12.4 0 -0.8 0.7 -1.6 1.6 -1.6 1.5 0 9.8 -7.7 9.8 -9.1 0 -0.3 2.6 -3.3 5.7 -6.2 3.1 -3.1 5.7 -6.7 5.7 -8.2 0 -1.5 0.5 -2.6 1.3 -2.4 2.9 0.5 8.5 -2.4 8.5 -4.4 0 -1.3 0.8 -2.3 1.6 -2.3 1 0 1.6 -1 1.6 -2.1 0 -1.1 1.5 -3.1 3.3 -4.4 1.8 -1.3 3.3 -3.3 3.3 -4.4 0 -1.1 0.8 -2.1 1.6 -2.1 1 0 1.6 -1.1 1.6 -2.4 0 -1.3 1.1 -2.4 2.4 -2.4 1.3 0 2.4 -1.1 2.4 -2.4 0 -1.3 0.8 -2.4 1.6 -2.4 1 0 1.6 -1.1 1.6 -2.4 0 -1.3 1.3 -3.8 2.9 -5.5 7 -7.5 11.8 -13.7 11.8 -15.7 0 -1.1 1.5 -2.4 3.3 -2.9 2.1 -0.5 3.6 -2.8 4.2 -5.9 0.7 -2.8 2.1 -5.1 3.3 -5.1 1.3 0 2.3 -1.1 2.3 -2.4 0 -1.3 0.8 -2.4 1.6 -2.4 1 0 1.6 -1.1 1.6 -2.4 0 -1.3 1 -2.4 2.3 -2.4 1.3 0 3.3 -2.1 4.6 -4.9 1.1 -2.6 2.6 -4.9 3.3 -4.9 0.8 0 1.3 -1.1 1.3 -2.6 0 -1.3 0.8 -2 1.6 -1.5 1 0.5 1.6 -0.5 1.6 -2.4 0 -2 0.7 -3.1 1.5 -2.4 0.8 0.5 2.9 -1.3 4.4 -4.1 1.6 -2.6 4.2 -4.9 5.9 -4.9 1.6 0 2.9 -1.1 2.9 -2.4 0 -3.4 5.4 -15.5 6.9 -15.5 0.8 0 1.3 -1.5 1.3 -3.4 0 -2 0.7 -2.8 1.8 -2.3 1 0.7 2.1 -0.3 2.6 -2.3 0.5 -2 1.5 -3.4 2.3 -3.4 0.8 0 1.5 -1.5 1.5 -3.4 0 -2 0.7 -2.8 1.8 -2.3 1 0.7 2.1 -0.3 2.6 -2.3 0.5 -2 1.5 -3.4 2.3 -3.4 0.8 0 1.5 -1 1.5 -2.3 0 -1.1 1.5 -2.6 3.3 -3.1 2.1 -0.5 3.3 -2.3 3.3 -4.7 0 -2 1.1 -5.9 2.4 -8.5 1.3 -2.4 2.4 -5.7 2.4 -7 0 -1.3 0.8 -1.8 1.6 -1.3 1 0.7 1.5 -3.3 1.3 -10.9 -0.2 -11.6 -0.2 -11.8 -1.3 -3.8 -0.8 6.4 -1.1 4.1 -1.3 -10.1 -0.2 -11.1 -1 -18.4 -2 -18.4 -0.8 0 -1.6 -1.6 -1.6 -3.4 0 -2 -1.8 -5.2 -4.1 -7.3 -2.3 -2.1 -4.1 -4.6 -4.1 -5.5 0 -0.8 -0.7 -1.6 -1.5 -1.6 -0.8 0 -1.8 -1.5 -2.3 -3.4 -0.5 -2 -1.6 -2.9 -2.6 -2.3 -1.1 0.5 -1.8 -0.5 -1.8 -2.4 0 -2 -0.7 -3.1 -1.5 -2.6 -0.8 0.5 -1.8 -1.3 -2.4 -4.1 -0.7 -3.1 -2.1 -5.4 -4.2 -5.9 -1.8 -0.5 -3.3 -2 -3.3 -3.1 0 -1.3 -0.7 -2.3 -1.6 -2.3 -0.8 0 -1.6 -1.1 -1.6 -2.4 0 -1.3 -0.7 -2.4 -1.6 -2.4 -0.8 0 -1.6 -1.1 -1.6 -2.4 0 -1.5 -1.1 -2.9 -2.4 -3.4 -1.3 -0.7 -2.4 -2 -2.4 -3.3 0 -1.3 -0.7 -2.3 -1.5 -2.3 -0.8 0 -2 -2.3 -2.6 -5.1 -0.7 -2.8 -2.3 -5.4 -3.8 -5.9 -3.6 -1.3 -10.1 -8.8 -10.1 -11.4 0 -1.1 -1.1 -2.1 -2.4 -2.1 -1.3 0 -2.4 -1.1 -2.4 -2.4 0 -3.1 -5.1 -9.1 -6.9 -8 -0.7 0.5 -1.3 -0.3 -1.3 -1.8 0 -3.1 -3.8 -7.3 -6.4 -7.3 -1 0 -1.8 -1.1 -1.8 -2.4 0 -1.3 -1.5 -3.9 -3.3 -5.7 -1.8 -1.8 -3.6 -5.1 -4.2 -7.5 -0.7 -2.3 -2.3 -4.6 -3.8 -5.2 -3.4 -1.3 -6.7 -4.6 -6.7 -6.7 0 -1 -1.1 -1.8 -2.4 -1.8 -1.3 0 -2.4 -1 -2.4 -2.3 0 -1.1 -1.1 -3.1 -2.4 -4.2 -1.3 -1.1 -2.4 -3.3 -2.4 -4.9 0 -2.4 -6 -5.7 -7.8 -4.4 -0.3 0.2 -1.6 -2.1 -3.1 -4.9 -1.3 -2.9 -3.6 -5.4 -4.7 -5.4 -1.3 0 -2.3 -1.1 -2.3 -2.4 0 -1.3 -0.7 -2.4 -1.6 -2.4 -0.8 0 -1.6 -1 -1.6 -2.3 0 -3.1 -4.7 -7.8 -6.7 -6.7 -0.8 0.7 -1.5 0 -1.5 -1.1 0 -1.3 -1.5 -3.3 -3.3 -4.6 -1.8 -1.3 -3.3 -3.3 -3.3 -4.4 0 -1.1 -1.1 -2.1 -2.4 -2.1 -1.3 0 -2.4 -0.7 -2.4 -1.5 0 -0.7 -2.6 -4.1 -5.7 -7.3 -3.1 -3.4 -5.7 -6.5 -5.7 -6.9 0 -1.6 -4.6 -5.5 -6.4 -5.5 -1 0 -1.8 -1.1 -1.8 -2.6 0 -1.3 -0.7 -2 -1.6 -1.5 -0.8 0.5 -1.6 0.2 -1.6 -1 0 -2 -8 -9.6 -10.1 -9.6 -0.8 0 -1.3 -0.8 -1.3 -1.8 0 -2.3 -4.1 -6.4 -6.4 -6.4 -1 0 -1.8 -0.8 -1.8 -1.8 0 -2.3 -4.1 -6.4 -6.4 -6.4 -1 0 -1.8 -1.1 -1.8 -2.8 0 -1.5 -0.5 -2.3 -1 -1.6 -1.1 1 -5.5 -2.6 -5.5 -4.6 0 -1.1 -4.2 -5.7 -5.4 -5.7 -0.3 0 -4.4 -3.4 -8.8 -7.8 -15.5 -14.5 -22.5 -20.7 -23.7 -20.2 -0.7 0.2 -1.6 -1.5 -2.3 -3.8 -0.7 -2.4 -2.1 -4.1 -3.9 -4.1 -1.6 0 -3.6 -1.5 -4.1 -3.3 -0.5 -1.8 -2.1 -3.3 -3.3 -3.3 -1.3 0 -3.1 -1.5 -4.1 -3.3 -1 -1.8 -2.6 -3.3 -3.8 -3.3 -1.1 0 -3.1 -1.5 -4.4 -3.3 -1.3 -1.8 -3.3 -3.3 -4.4 -3.3 -1.1 0 -2.1 -1 -2.1 -2.3 0 -1.3 -1.3 -2.8 -2.9 -3.3 -1.8 -0.7 -4.1 -2.9 -5.2 -5.1 -1.1 -2.3 -2.9 -4.1 -3.8 -4.1 -0.8 0 -3.3 -2 -5.4 -4.4 -2.1 -2.6 -3.9 -3.9 -3.9 -3.3 0 0.7 -1.8 -0.7 -4.1 -2.9 -2.3 -2.3 -5.2 -4.1 -6.5 -4.1 -1.3 0 -2.4 -0.8 -2.4 -1.6 0 -2.1 -7.5 -9.8 -9.5 -9.8 -0.8 0 -3.6 -1.8 -6.2 -4.1 -2.6 -2.3 -5.2 -4.1 -5.9 -4.1 -0.8 0 -1.3 -1 -1.3 -2.3 0 -1.3 -1.6 -2.9 -3.6 -3.6 -3.8 -1.1 -4.4 -1.6 -15 -11.3 -15.3 -13.9 -17.5 -15.5 -18.9 -15.5 -1 0 -1.6 -1.1 -1.6 -2.6 0 -1.3 -0.7 -2 -1.6 -1.5 -0.8 0.5 -1.6 -0.2 -1.6 -1.5 0 -1.3 -1.5 -2.8 -3.1 -3.4 -1.8 -0.5 -3.9 -3.3 -4.9 -6 -1.1 -3.4 -2.4 -4.6 -4.2 -3.9 -1.3 0.5 -2.4 0.3 -2.4 -0.5 0 -0.8 -1.6 -1.8 -3.8 -2.4 -2.1 -0.5 -4.7 -2.8 -5.7 -5.1 -1.1 -2.4 -2.6 -3.9 -3.4 -3.3 -1.8 1 -10 -2.4 -10 -4.4 0 -0.7 -1.8 -1.3 -4.1 -1.3 -2.3 0 -4.1 -0.7 -4.1 -1.6 0 -0.8 -2.6 -2 -5.7 -2.6 -3.1 -0.5 -5.7 -1.6 -5.7 -2.3 0 -2.9 -29.7 -6.9 -43.6 -5.7 -7.8 0.7 -11.9 0.3 -11.9 -0.8 0 -2.9 -4.6 -1.6 -5.4 1.6 -0.5 2 -2.3 3.3 -4.2 3.3 -3.3 0 -4.9 0.8 -10.8 6 -1.1 1.1 -2.9 2.1 -3.9 2.1 -0.8 0 -2.8 1.5 -4.1 3.4 -1.3 2 -3.1 2.9 -4.1 2.3 -1 -0.5 -2.4 0.8 -3.4 3.3 -2 5.2 -8.2 11.4 -12.7 12.9 -2 0.7 -3.6 1.8 -3.6 2.6 0 0.8 -2.3 1.8 -4.9 2.4 -3.3 0.7 -5.2 2.3 -5.9 4.9 -0.5 2 -3.4 5.1 -6.5 6.7 -3.1 1.6 -5.5 4.1 -5.5 5.2 0 1.5 -1 2 -2.4 1.3 -1.6 -0.7 -3.3 0.5 -4.4 3.1 -1 2.3 -3.1 4.4 -4.9 4.9 -1.6 0.7 -2.9 1.8 -2.9 2.6 0 0.8 -1 1.5 -2.1 1.5 -1.1 0 -3.1 1.5 -4.4 3.3 -1.3 1.8 -2.9 3.3 -3.8 3.3 -2 0 -6 4.4 -6 6.5 0 1 -0.5 1.5 -1.3 1 -1.5 -1 -13.4 9.5 -13.4 11.9 0 1 -1 1.8 -2.1 1.8 -1.1 0 -3.1 1.5 -4.4 3.3 -1.3 1.8 -3.8 3.3 -5.4 3.3 -5.2 0 -8.8 2.9 -9.8 8 -1 4.7 -9.8 15.5 -11.4 13.9 -0.5 -0.5 -2.3 1 -4.1 3.3 -1.8 2.4 -3.9 4.2 -4.6 4.2 -2.3 0.2 -8.8 6 -8.8 8 0 1 -1 1.3 -2.3 0.8 -1.5 -0.5 -3.1 0.7 -4.4 2.9 -1 2.1 -3.8 5.2 -6 7 -2.3 1.8 -5.7 4.9 -7.8 7 -2.1 2 -4.1 3.6 -4.6 3.6 -0.5 0 -4.1 3.3 -8.2 7.2 -4.4 4.4 -7.7 6.5 -8.2 5.4 -0.8 -2.1 -7.3 4.7 -7.5 7.8 -0.2 2 -5.9 9 -7.3 9 -1.6 0 -9 7.8 -9 9.8 0 0.8 -0.5 1.5 -1.1 1.3 -2.3 -0.3 -7 2.3 -7 3.9 0 2.1 -4.2 6.2 -6.4 6.2 -1 0 -1.8 0.7 -1.8 1.3 0 0.8 -4.1 5.5 -9 10.6 -4.9 5.1 -9 10 -9 10.9 0 1 -0.7 1.5 -1.3 1 -1.6 -1 -6.9 4.7 -6.9 7.3 0 0.8 -0.7 1.3 -1.5 0.8 -0.8 -0.5 -2.6 0.8 -4.1 3.1 -1.5 2.3 -3.3 3.9 -3.9 3.9 -3.6 -0.7 -5.1 0.7 -6 4.7 -0.5 2.4 -2.4 5.5 -4.1 6.9 -1.8 1.3 -3.3 3.3 -3.3 4.4 0 1.1 -0.8 2.1 -1.8 2.1 -1.8 0 -6.4 3.9 -6.4 5.5 0 0.5 -1.3 2.4 -2.8 4.1 -1.6 1.8 -4.4 5.1 -6.2 7.3 -1.8 2.3 -4.1 4.2 -5.2 4.2 -1 0 -2.8 2.1 -4.1 4.9 -1.1 2.6 -2.6 4.9 -3.3 4.9 -0.8 0 -1.3 1.1 -1.3 2.6 0 1.3 -0.7 2.1 -1.3 1.6 -1.5 -1 -6.9 4.7 -6.9 7.2 0 1 -0.7 1.6 -1.6 1.6 -0.8 0 -1.6 1.1 -1.6 2.4 0 1.3 -0.7 2.4 -1.6 2.4 -0.8 0 -1.6 0.8 -1.6 1.6 0 1 -1.8 3.4 -4.1 5.5 -2.3 2.1 -4.1 4.2 -4.1 4.7 0 0.5 -1.8 2.9 -4.1 5.4 -2.3 2.4 -4.1 5.4 -4.1 6.5 0 1.3 -0.7 2.3 -1.6 2.3 -0.8 0 -1.6 1.1 -1.6 2.4 0 1.3 -1.1 2.4 -2.4 2.4 -1.3 0 -2.4 1.1 -2.4 2.4 0 1.3 -0.7 2.4 -1.6 2.4 -0.8 0 -1.6 1.5 -1.6 3.4 0 1.8 -0.8 2.8 -1.6 2.3 -0.8 -0.5 -1.6 0.5 -1.6 2.4 0 2 -0.7 2.9 -1.8 2.4 -1 -0.7 -2.1 0.3 -2.6 2.3 -0.5 2 -1.5 3.4 -2.3 3.4 -0.8 0 -1.5 0.8 -1.5 1.6 0 1 -2.6 4.2 -5.7 7.2 -3.1 3.1 -5.7 6.4 -5.7 7.3 0 1 -0.8 1.8 -1.6 1.8 -2.1 0 -9.8 7.5 -9.8 9.5 0 0.8 -1.8 2.4 -4.1 3.6 -2.3 1.1 -4.1 3.1 -4.1 4.4 0 1.1 -0.7 2.1 -1.6 2.1 -0.8 0 -1.6 1.1 -1.6 2.4 0 1.3 -1.1 2.4 -2.4 2.4 -1.3 0 -2.4 0.5 -2.4 1.3 0 0.7 -2.1 3.6 -4.7 6.5 -2.6 2.8 -5.2 6.7 -5.9 8.5 -0.5 1.8 -1.8 3.3 -2.6 3.3 -0.8 0 -1.5 1.5 -1.5 3.3 0 1.8 -0.7 3.3 -1.6 3.3 -0.8 0 -1.6 1.8 -1.6 4.1 0 2.6 -1 4.1 -2.4 4.1 -2 0 -2.4 3.1 -2.4 18 0 14.9 0.5 18 2.4 18 1.5 0 2.4 1.5 2.4 4.1 0 3.4 0.8 4.1 4.7 4.1 3.4 0 4.9 1 5.5 3.4 0.5 2 1.6 2.9 2.6 2.3 1 -0.5 1.8 0 1.8 1.1 0 3.9 3.9 11.1 6.2 11.1 1 0 2 1.1 2 2.4 0 1.3 0.8 2.4 1.6 2.4 1 0 1.6 1.1 1.6 2.4 0 1.3 0.8 2.4 1.6 2.4 1 0 1.6 1.1 1.6 2.4 0 1.5 1.1 2.9 2.4 3.4 1.3 0.7 2.4 2 2.4 3.3 0 1.3 0.7 2.3 1.5 2.3 0.8 0 1.8 1.3 2.4 2.9 1.8 5.4 7.7 14.2 9.1 13.9 1 -0.3 1.6 0.3 1.6 1.3 0 1 1.1 2.8 2.4 4.1 1.3 1.5 2.4 4.2 2.4 6.5 0 2.8 1 3.9 3.1 3.9 1.6 0 3.6 1.1 4.1 2.6 0.5 1.3 1.6 2 2.6 1.5 0.8 -0.5 1.6 0.5 1.6 2.4 0 2 0.7 2.9 1.6 2.4 0.8 -0.5 1.6 0 1.6 1.3 0 1.3 2.6 4.9 5.7 8.2 3.1 3.3 5.7 7 5.7 8.5 0 1.3 0.8 2.4 1.6 2.4 1 0 1.6 1.1 1.6 2.4 0 1.3 0.8 2.4 1.6 2.4 2.1 0 11.4 9.3 11.4 11.4 0 1 0.8 1.6 1.6 1.6 1 0 1.6 1.1 1.6 2.3 0 2.9 8 11.8 10 11.1 0.8 -0.2 1.5 0.5 1.5 1.5 0 1.1 1.8 3.6 4.1 5.7 2.3 2.1 4.1 4.6 4.1 5.5 0 1 0.8 1.3 1.6 0.8 1 -0.5 1.6 -0.2 1.6 0.8 0 1 2.6 4.2 5.7 7.5 3.1 3.1 6.9 7.5 8.3 9.6 1.5 2.3 3.3 3.6 4.1 3.1 0.8 -0.5 1.5 0 1.5 1 0 2.3 4.1 6.5 6.4 6.5 1 0 1.8 1 1.8 2.1 0 1 2.3 4.1 4.9 6.5 2.8 2.6 4.9 5.4 4.9 6.2 0 0.8 1.1 1.5 2.4 1.5 1.3 0 2.4 0.8 2.4 1.8 0 2.3 4.1 6.4 6.4 6.4 1 0 1.8 1.1 1.8 2.4 0 1.3 0.7 2.4 1.5 2.4 0.7 0 5.1 3.8 9.6 8.2 4.6 4.6 8.8 8.2 9.3 8.2 2 0 5.2 4.2 6.9 9 1.1 3.4 2.8 4.9 5.2 5.1 2 0.2 4.7 1.8 6 3.8 1.3 1.8 3.1 3.4 4.1 3.4 0.8 0 3.8 2.3 6.7 4.9 2.8 2.8 5.5 4.9 6.2 4.9 0.7 0 1.6 2.3 2.3 4.9 0.8 4.7 5.7 7 6 2.9 0 -1.5 0.3 -1.3 1 0.2 1.3 3.3 19.7 21.4 21.7 21.4 1 0 1.6 0.8 1.6 1.8 0 2.3 4.1 6.4 6.4 6.4 1 0 1.8 1.1 1.8 2.6 0 1.3 0.8 2 1.6 1.5 1 -0.5 1.6 -0.2 1.6 0.8 0 2.3 7.5 9.8 9.8 9.8 0.8 0 1.6 0.8 1.6 1.8 0 2 4.1 6.4 6 6.4 0.8 0 2.4 1.5 3.8 3.3 1.3 1.8 2.9 3.3 3.6 3.3 1.6 0 9.5 8 9.5 9.6 0 0.7 1.8 2.3 4.1 3.4 2.6 1.5 4.1 3.6 4.1 6.2 0 3.3 0.7 3.8 3.4 3.1 2.4 -0.7 4.9 0.8 9.3 5.5 3.3 3.4 6.7 6.4 7.7 6.4 1 0 2.8 1.5 4.1 3.3 1.3 1.8 2.9 3.3 3.8 3.3 0.8 0 3.4 2.1 5.7 4.6 2.4 2.6 6.7 6 9.3 7.7 2.8 1.8 5.5 4.1 6.2 5.2 0.8 1.3 2 1.8 2.9 1.3 0.8 -0.7 1.5 0 1.5 1.3 0 1.1 1.8 3.1 4.1 4.1 2.4 1.1 4.1 3.3 4.1 5.2 0 2.4 0.8 3.3 2.9 2.9 3.3 -0.5 15 5.1 15 7.2 0 0.8 1.1 1.3 2.4 1.3 1.3 0 2.4 1.5 2.4 3.1 0 3.9 3.3 6.2 4.9 3.4 0.8 -1.5 1.5 -1.5 2.3 -0.2 0.7 1 2.4 1.8 4.2 1.8 1.6 0 3.3 1.1 3.9 2.4 0.5 1.3 2.1 2.4 3.8 2.4 1.6 0 4.7 2.1 6.9 4.7 2.1 2.6 4.9 4.4 5.9 3.9 1.1 -0.3 2.4 0.5 2.9 1.8 1.3 3.1 5.4 3.4 6.7 0.7 0.5 -1.6 1.5 -1.3 3.1 0.8 1.3 1.5 3.6 2.8 5.1 2.8 1.5 0 2.6 0.8 2.6 1.6 0 1 2.4 1.6 5.4 1.6 2.8 0.2 6.9 1 8.8 2.1 4.4 2.4 17 2.1 23.5 -0.5z"/>
  <path d="M614 1069.8 c-1.1 -1.3 -3.9 -2.4 -6 -2.4 -2.3 0 -4.1 -0.7 -4.1 -1.6 0 -0.8 -1.3 -1.6 -2.8 -1.6 -1.6 0 -4.4 -1.8 -6.2 -3.8 -1.8 -2.1 -6.4 -5.9 -10.1 -8.3 -3.9 -2.3 -7 -5.1 -7 -5.9 0 -1 -0.8 -1.6 -1.6 -1.6 -1 0 -3.6 -1.8 -5.9 -4.1 -2.3 -2.3 -4.9 -4.1 -6 -4.1 -1.1 0 -3.4 -1.8 -5.1 -4.1 -1.6 -2.1 -3.6 -3.6 -4.4 -3.1 -0.8 0.5 -1.5 -0.3 -1.5 -1.6 0 -1.5 -0.7 -2.6 -1.3 -2.6 -2.3 0 -8.8 -6.2 -10.8 -10.1 -1 -1.8 -3.6 -3.8 -5.7 -4.1 -2.1 -0.3 -5.2 -2 -6.7 -3.8 -1.6 -1.8 -3.4 -3.3 -4.1 -3.3 -1.6 0 -7.2 -7 -7.3 -9.3 0 -1 -2.1 -2.3 -4.6 -2.9 -2.4 -0.5 -5.5 -2.4 -6.9 -4.1 -1.3 -1.8 -3.3 -3.3 -4.4 -3.3 -1.1 0 -2.1 -1.1 -2.1 -2.8 0 -1.5 -0.5 -2.3 -1 -1.6 -0.5 0.5 -3.1 -1.3 -5.7 -3.9 -2.4 -2.6 -5.2 -4.7 -6.2 -4.7 -0.8 0 -2 -1.8 -2.4 -4.1 -0.7 -2.3 -2.1 -4.1 -3.4 -4.1 -2.3 0 -12.6 -8.5 -19.3 -15.8 -1.8 -2.1 -4.4 -3.8 -5.5 -3.8 -1.1 0 -2.1 -0.8 -2.1 -1.8 0 -1.8 -4.1 -6.4 -5.7 -6.4 -2 0 -9.1 -8.2 -10.6 -12.4 -1 -2.4 -2.6 -3.9 -3.9 -3.4 -1.1 0.5 -3.1 -0.5 -4.4 -2.3 -1.1 -1.6 -3.1 -3.1 -4.2 -3.1 -1.1 0 -2.1 -0.8 -2.1 -1.8 0 -2.1 -10.9 -12.9 -13.1 -12.9 -1 0 -1.6 -0.8 -1.6 -1.8 0 -2.3 -4.1 -6.4 -6.4 -6.4 -1 0 -1.8 -1 -1.8 -2 -0.2 -1.1 -2.8 -4.2 -5.9 -7 -7.8 -6.7 -16.2 -15 -25.9 -25.8 -4.4 -5.1 -8.6 -8.6 -9.3 -8.3 -0.8 0.5 -1.3 -0.3 -1.3 -1.8 0 -1.5 -0.7 -2.1 -1.6 -1.6 -0.8 0.5 -1.6 -0.2 -1.6 -1.5 0 -1.5 -1.1 -2.6 -2.4 -2.6 -1.3 0 -2.4 -1 -2.4 -2.1 0 -3.9 -9.8 -15.5 -13.9 -16.5 -2.3 -0.7 -4.1 -2.1 -4.1 -3.4 0 -1.3 -1 -2.4 -2 -2.4 -1.1 0 -3.9 -2.3 -6.2 -5.1 -2.3 -2.8 -6.5 -7.7 -9.3 -10.9 -2.9 -3.3 -5.4 -6.5 -5.4 -7.2 0 -0.7 -1.1 -1.3 -2.4 -1.3 -1.3 0 -2.4 -0.8 -2.4 -1.8 0 -2.1 -4.1 -6.4 -6.2 -6.4 -0.8 0 -2.1 -1.8 -2.6 -4.1 -0.7 -2.3 -1.8 -4.1 -2.6 -4.1 -1 0 -1.6 -1.1 -1.6 -2.4 0 -1.3 -1.1 -2.4 -2.4 -2.4 -1.3 0 -2.4 -0.7 -2.4 -1.6 0 -0.8 -1.1 -1.6 -2.4 -1.6 -1.3 0 -2.4 -1.1 -2.4 -2.4 0 -1.3 -0.7 -2.4 -1.6 -2.4 -0.8 0 -1.6 -1.1 -1.6 -2.4 0 -1.3 -1.1 -2.4 -2.4 -2.4 -1.3 0 -2.4 -1.1 -2.4 -2.6 0 -1.3 -0.8 -2 -1.6 -1.5 -0.8 0.5 -1.6 -0.2 -1.6 -1.5 0 -1.5 -0.5 -2.6 -1.3 -2.6 -0.7 0 -2.9 -2.9 -5.2 -6.5 -2.3 -3.6 -4.4 -6.5 -4.9 -6.5 -1.8 -0.2 -11.4 -9.5 -11.4 -11.3 0 -1 -0.7 -1.8 -1.5 -1.8 -2.6 0 -19.7 -19.1 -19.7 -21.9 0 -1 -2.1 -3.6 -4.9 -5.9 -2.6 -2.3 -4.9 -5.4 -4.9 -6.9 0 -1.6 -0.7 -2.9 -1.5 -2.9 -0.8 0 -1.8 -1.5 -2.3 -3.4 -0.5 -2 -1.6 -2.9 -2.6 -2.3 -1.1 0.7 -1.8 -0.8 -1.8 -4.1 0 -2.9 -0.7 -4.7 -1.6 -4.1 -1 0.7 -1.6 -1.6 -1.6 -5.5 0 -3.6 -0.8 -7 -1.6 -7.5 -1 -0.7 -1.3 -4.2 -0.7 -9.1 1 -7.3 0.8 -8 -2.4 -8 -3.1 0 -3.4 -0.8 -3.4 -10.4 0 -7.8 0.7 -10.6 2.4 -11.4 1.5 -0.5 2.4 -2.9 2.4 -5.7 0 -3.3 1 -4.9 3.3 -5.5 2.6 -0.7 3.3 -2.3 3.3 -8.3 0 -5.5 0.7 -7.5 2.4 -7.5 1.3 0 2.4 -1.5 2.4 -3.3 0 -1.8 0.8 -3.3 1.6 -3.3 1 0 1.6 -1.1 1.6 -2.4 0 -1.5 1.8 -4.2 4.1 -6.4 2.3 -2.1 4.1 -4.9 4.1 -6.4 0 -1.5 0.8 -3.1 1.6 -3.6 0.8 -0.5 1.6 -2.4 1.6 -4.2 0 -1.6 0.8 -2.9 2 -2.6 1 0.2 2.3 -1 2.6 -2.8 0.3 -1.6 2.6 -5.1 4.9 -7.5 6.4 -6.4 10.1 -11.3 10.1 -13.1 0 -1 0.8 -1.6 1.6 -1.6 1 0 1.6 -0.8 1.6 -1.6 0 -1 1.8 -3.4 4.1 -5.5 2.3 -2.1 4.1 -4.6 4.1 -5.7 0 -1 1.1 -1.8 2.4 -1.8 1.3 0 2.4 -1 2.4 -2 0 -2.8 7.2 -11.1 9.6 -11.1 1 0 1.8 -1 1.8 -2.1 0 -1.1 1.5 -3.8 3.3 -5.7 1.8 -2 3.3 -4.2 3.3 -5.2 0 -0.8 0.8 -1.5 1.8 -1.1 1 0.2 3.1 -2 4.6 -4.9 1.6 -3.3 4.2 -5.5 7.2 -6.2 3.4 -0.8 4.7 -2.3 5.5 -5.9 0.5 -2.6 1.5 -4.7 2.3 -4.7 0.8 0 1.5 -1.1 1.5 -2.6 0 -1.3 0.7 -2.1 1.3 -1.6 1.5 1 6.9 -4.7 6.9 -7.2 0 -1 1 -1.6 2.1 -1.6 1.3 0 3.1 -1.8 4.1 -4.1 1 -2.3 2.6 -4.1 3.6 -4.1 0.8 0 1.6 -1.1 1.6 -2.6 0 -1.3 0.8 -2 1.6 -1.5 1 0.5 1.6 -0.2 1.6 -1.5 0 -1.5 1.1 -2.6 2.4 -2.6 1.3 0 2.4 -0.8 2.4 -1.6 0 -1 3.3 -4.9 7.3 -8.8 4.1 -4.1 7.3 -8 7.3 -9 0 -1.6 0.8 -2 6 -2.4 3.3 -0.3 19.7 -17.5 20.7 -21.5 0.7 -2.1 1.8 -3.9 2.6 -3.9 1 0 1.6 -1.3 1.6 -2.8 0 -1.5 0.5 -2.1 1 -1.6 0.7 0.7 6.2 -4.1 12.4 -10.3 6.2 -6.4 11.6 -11.4 12.1 -11.4 1.6 0 8.8 -8 8.8 -9.8 0 -1 0.8 -1.3 1.6 -0.8 1 0.5 2.1 -0.2 2.6 -1.5 0.5 -1.3 2.3 -2.9 4.1 -3.4 1.6 -0.7 3.1 -2.1 3.1 -3.4 0 -1.3 0.8 -2.3 1.6 -2.3 1 0 3.6 -1.8 5.9 -4.1 2.3 -2.3 5.5 -4.1 7.2 -4.1 2.1 0 3.6 -1.5 4.2 -4.4 1.1 -4.4 4.2 -8.6 6.4 -8.6 0.5 0 2.6 -1.6 4.7 -3.6 5.9 -5.7 10.6 -9.5 12.1 -9.5 0.7 0 2.4 -2 3.9 -4.4 1.6 -2.6 2.9 -3.6 2.9 -2.4 0 1 1.1 2 2.4 2 1.6 0 2.4 -1.6 2.4 -4.9 0 -2.6 0.5 -4.7 1.3 -4.6 2.4 0.5 6.9 -2.4 6.9 -4.6 0 -1.3 0.5 -2.1 1.3 -1.8 1.6 0.5 9.5 -5.7 10.6 -8.6 0.5 -1.5 1 -1.6 1 -0.3 0.3 3.3 5.1 2.3 5.1 -1.1 0 -1.8 2.8 -5.2 6.2 -7.8 3.3 -2.4 8.3 -6.7 11.3 -9.5 7.5 -7.3 11.9 -10.8 11.9 -9.5 0 0.7 1.5 -0.5 3.3 -2.4 1.8 -2 4.4 -3.1 5.7 -2.6 1.6 0.7 2.9 -0.5 4.1 -3.4 2 -5.1 5.7 -9.3 7.2 -7.8 0.5 0.7 1 0.2 1 -0.8 0 -1.1 0.8 -2 1.8 -2 1.1 0 3.1 -1.3 4.6 -2.9 1.5 -1.6 5.1 -4.4 7.8 -6 2.9 -1.8 5.4 -3.8 5.4 -4.6 0 -0.8 1.1 -1.1 2.4 -0.5 1.5 0.5 3.1 -0.5 4.2 -2.8 2.8 -4.9 5.1 -7 9.3 -8.3 2 -0.7 3.6 -2.1 3.6 -3.4 0 -1.1 2.6 -3.3 5.7 -4.7 3.1 -1.5 5.7 -3.4 5.7 -4.2 0 -1 1.8 -1.6 4.1 -1.6 2.3 0 4.1 -0.7 4.1 -1.5 0 -4.6 41.6 -4.6 46.4 0 1 0.8 3.6 1.5 6 1.5 2.4 0 4.7 1.1 5.4 2.4 0.5 1.3 2.4 2.4 4.2 2.4 1.8 0 3.3 0.8 3.3 1.6 0 1 1.8 1.6 4.1 1.6 2.6 0 4.1 1 4.1 2.4 0 1.3 0.8 2.4 2 2.4 3.3 0 14.4 8.5 14.4 10.8 0 2.8 4.4 2.9 5.4 0.3 0.5 -1.3 1 -1 1 0.8 0.2 1.6 1.5 2.8 3.4 2.8 3.4 0 5.1 1 12.2 7.7 2.1 2.1 4.6 3.8 5.2 3.8 0.8 0 2.4 1.5 3.8 3.3 1.3 1.8 2.9 3.3 3.6 3.3 0.8 0 3.6 2.3 6.5 4.9 2.8 2.8 5.5 4.9 6.4 4.9 0.7 0 1.5 2 1.8 4.6 0.3 3.1 1.3 4.2 3.4 3.9 1.5 -0.3 2.8 0.3 2.8 1.3 0 0.8 0.7 1.6 1.6 1.6 1.5 0 6.5 4.1 15.5 12.6 2.1 2.1 4.7 3.8 5.7 3.8 0.8 0 1.6 1.1 1.6 2.8 0 1.5 0.5 2.3 1 1.8 0.5 -0.5 5.5 3.8 11.3 9.5 5.7 5.7 11.3 10.4 12.1 10.4 1 0 1.8 1.1 1.8 2.4 0 1.3 0.8 2.4 1.6 2.4 2.1 0 9.8 7.5 9.8 9.5 0 0.8 1.8 2.4 4.1 3.6 2.3 1.1 4.1 3.1 4.1 4.2 0 2 4.6 4.7 7 4.2 0.7 -0.2 1.1 0.5 1.1 1.3 0 2.3 18.9 21.2 21.1 21.2 1 0 1.8 0.8 1.8 1.8 0 2.3 4.1 6.4 6.4 6.4 1 0 1.8 1.1 1.8 2.4 0 1.3 1.8 3.6 4.1 5.1 2.1 1.5 4.4 3.9 4.9 5.7 0.7 1.6 2.1 3.1 3.4 3.1 1.3 0 2.3 1 2.3 2.3 0 2.1 4.4 5.1 7 4.6 0.7 -0.2 1.1 0.5 1.1 1.3 0 1 2.3 3.9 4.9 6.9 2.8 2.8 4.9 5.7 4.9 6.4 0 0.8 1.1 1.5 2.4 1.5 1.3 0 2.4 1.1 2.4 2.4 0 1.3 0.7 2.4 1.3 2.4 0.8 0 2.4 1.8 3.6 4.1 1.1 2.3 3.1 4.1 4.4 4.1 1.1 0 2.1 1 2.1 2.1 0 1.3 1.8 3.3 4.1 4.4 2.3 1.1 4.1 2.9 4.1 3.8 0 1 2.6 4.1 5.7 7.2 3.1 3.1 5.7 6 5.7 6.5 0 0.5 4.4 5.2 9.8 10.6 5.4 5.2 9.8 10.3 9.8 11.3 0 0.8 0.7 1.3 1.3 0.8 0.7 -0.3 2.3 1.5 3.4 4.1 1.1 2.6 3.1 4.7 4.4 4.7 1.3 0 2.3 1.1 2.3 2.4 0 1.3 0.8 2.4 1.6 2.4 1 0 1.6 0.7 1.6 1.6 0 2.4 5.4 8.2 6.9 7.2 0.7 -0.5 1.3 0.3 1.3 2 0 1.5 1.8 4.4 4.1 6.5 2.3 2.1 4.1 4.6 4.1 5.5 0 1 2.3 3.9 4.9 6.5 2.8 2.6 4.9 5.5 4.9 6.5 0 0.8 1 1.6 2.3 1.6 1.5 0 2.6 2 2.9 5.2 0.3 3.8 1.5 5.5 3.6 5.9 4.1 0.8 6.7 3.6 8.3 8.5 0.7 2.3 3.4 6 5.9 8.3 2.6 2.3 4.7 4.7 4.7 5.5 0 0.7 1.8 2.9 4.1 5.1 2.3 2.1 4.1 4.6 4.1 5.5 0 0.8 0.8 1.6 1.6 1.6 1 0 1.6 1.1 1.6 2.4 0 1.3 1.1 2.4 2.4 2.4 1.3 0 2.4 1.5 2.4 3.3 0 1.8 1.5 4.7 3.3 6.5 1.8 1.8 3.3 4.1 3.3 4.9 0 1 0.8 1.6 1.6 1.6 1 0 1.6 1.1 1.6 2.4 0 1.5 1.1 2.9 2.4 3.4 1.3 0.7 2.4 2.1 2.4 3.4 0 1.5 1.8 4.2 4.1 6.4 2.3 2.1 4.1 4.2 4.1 4.7 0 0.5 1.5 2.4 3.3 4.4 1.6 1.8 4.2 5.9 5.7 8.8 1.5 3.1 3.3 5.5 3.9 5.5 1.5 0 3.4 4.6 4.9 12.2 0.7 2.8 2 4.7 3.1 4.6 1.3 -0.3 2 2.8 2 10.9 0 8 -0.7 11.3 -2 10.9 -1 -0.2 -2.3 1 -2.6 2.8 -0.3 1.6 -2.6 5.1 -4.9 7.3 -7.7 7.7 -13.4 14.9 -13.4 16.5 0 0.8 -1.1 1.6 -2.4 1.6 -1.3 0 -2.4 0.5 -2.4 1.3 0 0.7 -2 3.4 -4.4 6.4 -10.8 12.1 -13.5 15.7 -13.5 17.8 0 1.3 -1.1 2.3 -2.4 2.3 -1.3 0 -2.4 1.1 -2.4 2.4 0 1.3 -0.7 2.4 -1.6 2.4 -0.8 0 -1.6 1.1 -1.6 2.4 0 1.3 -0.7 2.3 -1.5 2 -0.8 -0.2 -2.8 1.1 -4.4 3.1 -1.8 1.8 -4.4 3.8 -5.9 4.4 -2 0.7 -2.9 2.8 -2.9 6 0 3.3 -0.8 4.9 -2.4 4.9 -1.3 0 -2.4 1.5 -2.4 3.4 0 1.8 -0.7 2.8 -1.6 2.3 -0.8 -0.5 -1.6 0 -1.6 1.5 0 1.3 -2.6 3.3 -5.7 4.2 -3.6 1.1 -5.7 2.9 -5.7 4.6 0 1.6 -1.8 4.7 -4.1 7.2 -2.3 2.4 -4.1 5.2 -4.1 6.2 0 0.8 -0.7 1.6 -1.6 1.6 -0.8 0 -1.6 1.1 -1.6 2.6 0 1.3 -0.7 2.1 -1.3 1.6 -1.5 -0.8 -6.9 4.7 -6.9 7 0 0.8 -2.1 2.4 -4.9 3.6 -3.1 1.5 -5.2 3.8 -5.9 6.7 -0.5 2.6 -2 4.6 -3.3 4.6 -1.3 0 -2.3 1.1 -2.3 2.4 0 1.3 -0.7 2.4 -1.6 2.4 -0.8 0 -1.6 1.1 -1.6 2.4 0 1.3 -0.7 2.4 -1.6 2.4 -0.8 0 -1.6 1.1 -1.6 2.6 0 1.3 -0.7 2.1 -1.5 1.6 -0.8 -0.5 -2.8 1 -4.4 3.1 -1.6 2.3 -3.9 4.1 -5.1 4.1 -1.1 0 -2.1 1.1 -2.1 2.4 0 1.3 -0.7 2.4 -1.6 2.4 -0.8 0 -1.6 1.1 -1.6 2.4 0 1.3 -0.7 2.4 -1.6 2.4 -0.8 0 -1.6 1.1 -1.6 2.6 0 1.3 -0.7 2.1 -1.5 1.5 -0.8 -0.5 -2.9 1.3 -4.4 4.1 -1.6 2.6 -3.6 4.9 -4.2 4.9 -0.7 0 -1.3 1.1 -1.3 2.6 0 1.3 -0.7 2.1 -1.3 1.6 -1.3 -0.8 -6.9 4.6 -6.9 6.4 0 1.6 -17.8 18.4 -18.6 17.6 -0.5 -0.5 -1.8 1 -2.8 3.4 -1.1 2.3 -2.6 4.2 -3.4 4.2 -0.7 0 -1.3 1.1 -1.3 2.4 0 1.3 -0.8 2.4 -1.8 2.4 -2.3 0 -6.4 4.1 -6.4 6.4 0 1 -0.8 1.8 -1.8 1.8 -2.1 0 -6.4 4.1 -6.4 6.2 0 0.8 -1.5 2 -3.3 2.4 -1.8 0.5 -3.3 2 -3.3 3.4 0 1.5 -0.8 2.6 -1.8 2.6 -1 0 -2.8 1 -4.1 2.3 -1.3 1.3 -2.3 3.1 -2.3 4.1 0 1 -0.8 1.8 -1.8 1.8 -1 0 -4.9 3.1 -8.6 7 -3.8 3.9 -7.7 6.9 -8.8 6.4 -1.1 -0.3 -2 0.2 -2 1.1 0 1 -1.1 1.8 -2.4 1.8 -1.3 0 -2.4 1.5 -2.4 3.3 0 3.1 -8.8 13.1 -11.6 13.1 -0.8 0 -1.5 1 -1.5 2.3 0 1.3 -1.5 2.9 -3.3 3.4 -1.8 0.5 -3.3 2.1 -3.3 3.4 0 1.3 -0.5 2.1 -1.3 1.8 -1.3 -0.3 -4.6 2.1 -11.8 9 -2.6 2.4 -6.5 4.9 -8.8 5.5 -2.8 0.7 -4.2 2.1 -4.2 4.1 0 1.8 -1.1 3.6 -2.4 4.1 -1.3 0.7 -2.4 2.1 -2.4 3.4 0 1.3 -0.7 2 -1.5 1.5 -0.8 -0.5 -2.8 0.8 -4.4 3.1 -1.6 2.1 -3.4 3.6 -4.1 3.3 -1.3 -0.8 -9.6 7.2 -9.6 9.1 0 0.8 -0.8 1.5 -1.6 1.5 -1.6 0 -4.6 2.4 -14.4 11.4 -2.4 2.3 -8.5 5.9 -13.4 8 -4.9 2.1 -9.3 4.4 -9.8 5.1 -0.5 0.8 -2 1.6 -3.1 2 -1.3 0.3 -3.6 1.6 -5.2 2.9 -6.2 5.2 -8 6.5 -8.8 6.5 -0.5 0 -1.8 0.7 -2.9 1.6 -1 1 -4.9 3.9 -8.5 6.5 -3.6 2.8 -8 6 -9.8 7.3 -1.6 1.3 -4.1 2.4 -5.1 2.4 -1.1 0 -2.3 0.7 -2.6 1.3 -0.8 2.1 -15.7 10.1 -18.6 10.1 -1.5 0 -3.6 1.1 -4.9 2.4 -3.6 3.4 -36.4 3.4 -39.5 0z m58.4 -152.6 c0 -10.1 -0.7 -18.1 -1.6 -18.8 -1 -0.7 -1.6 -10.1 -1.6 -23 0 -12.2 -0.7 -21.9 -1.5 -21.9 -0.8 0 -2 -9.8 -2.4 -21.5 -0.8 -21.9 -3.6 -70.2 -4.1 -71.2 0 -0.3 -0.8 0 -1.8 0.5 -1 0.7 -1.6 -2.4 -1.6 -8 l0 -9.1 -26.9 0 -26.9 0 0 53 c0 34.3 -0.7 53 -1.6 53 -1 0 -1.6 8 -1.6 20.6 0 11.4 -0.7 20.1 -1.5 19.6 -2 -1.3 -3.4 4.7 -3.4 14.9 0 4.6 -0.7 9 -1.6 9.5 -0.8 0.5 -1.6 4.6 -1.6 9 0 4.4 -0.7 8.5 -1.6 9 -0.8 0.5 -1.6 1.5 -1.6 2.1 0 0.7 18.8 1 41.6 0.7 l41.6 -0.5 0 -17.8z m-7.8 -191.8 c24.8 -1 31 -0.8 33.3 1 2.3 1.8 2.9 1.6 4.9 -1 2.1 -2.8 4.7 -3.4 18.3 -3.8 8.6 -0.3 16.6 -1.3 17.5 -2 3.1 -2.6 18.6 -3.8 21.1 -1.6 2.8 2.1 5.9 1 5.9 -2.4 0 -1.5 3.1 -2.4 10.3 -2.9 16.3 -1.5 27.7 -3.6 32 -6.2 2.9 -1.8 4.1 -1.8 4.6 -0.2 1.3 3.4 4.9 2.1 6 -2 0.5 -2.3 2.6 -4.6 4.7 -5.2 2 -0.7 4.7 -2.4 6 -3.9 1.3 -1.5 4.1 -3.3 6.2 -3.9 2 -0.7 3.6 -2 3.6 -2.8 0 -0.8 1.1 -1.5 2.4 -1.5 1.1 0 2.9 -1.1 3.8 -2.6 0.8 -1.5 3.4 -2.6 5.9 -2.6 3.1 0 4.9 -1.1 5.9 -3.8 2 -5.1 13.7 -16.8 18.6 -18.6 2.6 -1.1 4.2 -3.3 4.9 -7.3 0.7 -3.3 1.8 -5.9 2.6 -5.9 1 0 1.6 -2.3 1.6 -5.1 0 -2.6 0.7 -4.6 1.5 -4.1 0.8 0.5 2 -0.2 2.4 -1.6 1.5 -3.9 1.1 -10.1 -0.7 -11.3 -0.8 -0.5 -1.6 -2.3 -1.6 -3.8 0 -2.9 -6.4 -9.5 -8.5 -8.8 -0.8 0.2 -1.3 -0.7 -1.3 -2 0 -1.3 -1.5 -2.9 -3.3 -3.4 -1.8 -0.7 -4.4 -2.8 -5.9 -4.9 -1.3 -2.1 -4.7 -4.7 -7.7 -5.9 -2.9 -1.1 -6.2 -3.1 -7.3 -4.2 -1.1 -1.1 -3.3 -2.1 -4.4 -2.1 -1.3 0 -3.1 -1.3 -3.9 -2.9 -0.8 -1.6 -4.1 -3.9 -7.3 -5.2 -3.8 -1.5 -5.9 -3.3 -5.9 -5.2 0 -1.6 -0.7 -2.9 -1.6 -2.9 -0.8 0 -1.6 -1.1 -1.6 -2.4 0 -1.3 0.8 -2.4 1.6 -2.4 1 0 1.6 -1 1.6 -2.3 0 -1.3 -2.4 -2.6 -6 -3.1 -9.6 -1.3 -15.8 -3.1 -18.3 -4.9 -1.1 -1 -4.6 -1.6 -7.7 -1.3 -3.1 0.2 -5.5 -0.3 -5.5 -1.3 0 -1 -2.4 -1.8 -5.4 -1.8 -2.9 0 -6.9 -1.1 -8.6 -2.4 -1.8 -1.5 -6.9 -2.3 -12.4 -2.4 -5.2 0 -9.5 -0.7 -9.5 -1.5 0 -0.8 -3.3 -1.8 -7.3 -2.1 -6.7 -0.5 -7.3 -0.2 -7.3 3.1 0 2.1 0.7 3.8 1.5 3.8 0.8 0 1.8 2.3 2.4 5.1 0.5 2.8 1.6 4.6 2.6 3.9 1 -0.7 1.6 1 1.8 3.6 0.3 9.5 1 12.4 3.6 13.9 1.6 0.8 2.8 2.3 2.8 3.4 0 1.5 4.1 1.8 15 1.3 17.1 -0.7 40.5 3.8 40.5 7.7 0 1.6 1.3 2 4.9 1.1 3.1 -0.7 4.9 -0.5 4.9 0.7 0 1 1.5 1.8 3.3 1.8 1.8 0 3.8 1.1 4.2 2.4 0.7 1.3 2 2.4 3.3 2.4 1.3 0 2.3 1.6 2.3 4.1 0 2.9 1.1 4.6 3.9 5.5 3.9 1.6 5.9 4.9 5.9 10.1 0 1.8 1.1 3.6 2.4 4.1 1.6 0.7 2.4 3.3 2.4 8.2 0 6 -0.5 7.2 -3.3 7.2 -2.4 0 -3.3 1.1 -3.3 3.9 0 2.3 -1.1 5.1 -2.4 6.5 -1.3 1.3 -2.4 3.3 -2.4 4.2 0 1 -0.7 1.3 -1.6 0.8 -0.8 -0.5 -1.6 -0.2 -1.6 0.7 0 1 -0.8 1.8 -1.8 1.8 -2.3 0 -6.4 4.2 -6.4 6.7 0 1.1 -0.5 1.6 -1 1 -1 -0.8 -11.6 6 -13.7 9 -0.5 0.5 -2.3 1 -4.1 0.8 -2.4 -0.3 -3.4 0.8 -3.8 3.9 -0.5 3.6 -1.5 4.6 -7 5.4 -3.4 0.5 -6.4 1.8 -6.4 2.6 0 1 -2.1 1.6 -4.7 1.6 -2.8 0 -5.4 0.8 -5.9 1.6 -0.5 1 -3.8 1.6 -7.2 1.6 -3.3 0 -6.9 0.8 -8 2 -1.6 1.6 -5.7 2.6 -23.5 5.5 -4.1 0.7 -7 0.3 -8.8 -1.1 -2.3 -1.8 -2.9 -1.6 -5.5 1.6 -2.4 3.4 -5.1 4.1 -19.7 5.5 -20.2 2.1 -117.8 2.4 -146.7 0.5 -11.3 -0.7 -24 -2.3 -28.4 -3.6 -4.4 -1.3 -11.9 -2.3 -16.5 -2.3 -6.4 0 -8.8 -0.8 -10.6 -3.3 -1.3 -1.8 -3.3 -3.3 -4.2 -3.3 -1 0 -4.4 -2.1 -7.3 -4.9 -3.1 -2.6 -6.5 -4.9 -7.5 -4.9 -1.1 0 -2.1 -0.7 -2.1 -1.5 0 -0.8 -1.6 -2.1 -3.6 -2.8 -2 -0.5 -4.6 -2 -5.5 -2.9 -1.1 -1 -3.9 -3.3 -6.4 -5.1 -2.4 -1.8 -6.5 -5.4 -9.1 -8.2 -2.6 -2.6 -4.9 -4.1 -4.9 -3.3 -0.2 1 -0.8 -1.3 -1.3 -4.9 -0.8 -5.2 -1.8 -6.7 -4.6 -7 -3.4 -0.5 -3.8 -1.5 -3.8 -11.1 0 -8.2 0.5 -10.4 2.4 -10.4 1.3 0 2.4 -1.5 2.4 -3.3 0 -1.8 0.8 -3.3 1.6 -3.3 1 0 1.6 -1.5 1.6 -3.3 0 -1.8 0.7 -3.3 1.5 -3.3 1 0 2.9 -2.1 4.6 -4.9 1.5 -2.6 3.8 -4.9 4.9 -4.9 1.3 0 2.6 -1.1 3.1 -2.4 0.7 -1.3 2 -2.4 3.3 -2.4 1.3 0 2.3 -0.7 2.3 -1.5 0 -2.4 18 -8.3 22.2 -7.3 3.1 0.8 3.9 0.3 3.9 -2.1 0 -2.4 2 -3.4 10.3 -5.2 5.5 -1.1 12.4 -3.1 15.3 -4.4 2.8 -1.3 7 -2.3 9.3 -2.3 2.3 0 4.2 -0.7 4.2 -1.6 0 -0.8 2.6 -1.6 6 -1.6 l5.9 0 -3.9 -3.4 c-2.1 -1.8 -5.9 -4.4 -8.3 -5.7 -2.6 -1.3 -4.6 -3.8 -4.6 -5.5 0 -3.4 -4.7 -4.6 -5.1 -1.1 0 1.6 -0.3 1.6 -1 0 -0.3 -1.1 -1.8 -2.1 -2.9 -2.1 -1.1 0 -2.4 -1.1 -3.1 -2.4 -0.5 -1.3 -2 -2.4 -3.4 -2.4 -1.3 0 -2.4 -0.7 -2.4 -1.5 0 -0.8 -1.6 -2.1 -3.6 -2.8 -2.1 -0.7 -4.9 -2.4 -6.4 -4.1 -1.5 -1.8 -3.3 -3.1 -3.9 -3.1 -0.7 0 -2.6 -1.5 -4.1 -3.3 -2.8 -3.1 -8.2 -3.1 -8.2 0.2 0 2.6 -9.6 6.5 -13.7 5.4 -2.8 -0.7 -4.4 -0.2 -5.5 1.8 -1.5 2.9 -11.8 7.3 -17 7.3 -1.5 0 -2.9 0.8 -3.3 1.8 -0.3 0.8 -2 1.8 -3.4 2.1 -1.6 0.2 -3.6 1.1 -4.1 2 -1.8 2.4 -13.2 8.8 -16 8.8 -1.3 0 -2.8 1.1 -3.3 2.4 -0.7 1.3 -2.3 2.4 -3.9 2.4 -1.8 0 -3.6 0.8 -4.1 1.6 -0.5 1 -2.4 1.6 -4.2 1.6 -1.6 0 -3.1 0.7 -3.1 1.6 0 0.8 -1.8 2 -4.1 2.6 -2.3 0.5 -4.1 1.6 -4.1 2.4 0 0.8 -1.5 1.5 -3.1 1.5 -1.8 0 -3.6 0.7 -4.2 1.6 -0.5 0.8 -2 1.1 -3.3 0.7 -1.3 -0.7 -2.4 0.5 -2.8 2.9 -0.3 2.1 -1.3 3.8 -2.1 3.8 -2.6 0 -10.6 6.7 -10.6 8.8 0 1.1 -1.8 3.6 -4.1 5.7 -2.3 2.1 -4.1 5.1 -4.1 6.5 0 1.5 -0.7 2.6 -1.6 2.6 -0.8 0 -1.6 3.9 -1.6 8.8 0 4.9 -0.7 9.5 -1.6 10 -2.9 1.8 -1.8 7.7 1.6 8.5 1.8 0.5 3.3 1.8 3.3 2.9 0 1.1 1.8 3.9 4.1 6.4 2.3 2.4 4.1 5.1 4.1 6 0 0.8 0.8 1.5 1.6 1.5 1 0 1.6 0.7 1.6 1.6 0 2.4 5.4 8.2 6.9 7.2 0.7 -0.5 1.3 0 1.3 1 0 2 3.9 6.5 5.7 6.5 0.5 0 2.8 1.8 5.1 4.1 2.3 2.3 5.1 4.1 6.5 4.1 1.3 0 3.6 1.5 5.1 3.3 1.6 1.8 4.1 3.3 5.7 3.3 1.6 0 2.9 0.8 2.9 1.6 0 1 1 1.6 2.1 1.6 2.9 0 13.1 5.1 14.5 7 0.5 1 3.1 1.8 5.7 2.1 10.6 1 15.7 2.8 16.3 5.7 0.8 3.3 5.4 4.4 5.4 1.5 0 -0.8 1.8 -1.6 4.1 -1.6 2.3 0 4.1 0.7 4.1 1.5 0 1.8 11.9 4.9 22.7 6.2 4.7 0.5 8.3 2.1 10.1 4.2 2.3 2.9 3.1 3.1 5.2 1.5 2.6 -2.1 13.2 -1.3 16.6 1.3 1.8 1.5 10.9 2.3 56 4.7 15.7 0.8 28.6 1.8 28.9 2.1 0.8 0.7 21.2 0.3 56.6 -1.1z m-6.5 -134.2 l0.5 -99.2 21.1 -0.5 c12.6 -0.2 21.7 0.2 23 1.3 2.3 1.8 4.1 0.5 4.1 -2.9 0 -1.5 -1.1 -2.1 -3.3 -1.5 -2.8 0.7 -3.3 0 -3.3 -4.7 0 -3.6 -0.8 -5.5 -2.3 -5.5 -1.5 0 -2.6 -2.9 -3.4 -9.1 -0.7 -5.4 -2 -9.3 -3.4 -10 -1.3 -0.5 -2.3 -3.1 -2.3 -6.4 0 -3.1 -0.7 -5.5 -1.6 -5.5 -0.8 0 -1.6 -2.3 -1.6 -4.9 0 -2.9 -1 -5.4 -2.4 -5.9 -1.5 -0.7 -2.4 -3.1 -2.4 -6.5 0 -3.1 -0.7 -5.5 -1.5 -5.5 -1 0 -1.8 -2.4 -2.1 -5.2 -0.3 -3.3 -1.3 -5.2 -2.4 -4.9 -1.5 0.2 -2.1 -1.8 -2.1 -6.2 0 -3.6 -0.7 -6.5 -1.6 -6.5 -0.8 0 -1.6 -2.6 -1.6 -5.7 0 -3.1 -0.7 -5.7 -1.5 -5.7 -0.8 0 -1.8 -2 -2.3 -4.4 -2 -10.6 -4.4 -17.6 -5.9 -18.1 -1 -0.3 -1.8 -3.1 -1.8 -6.2 0 -3.1 -0.7 -5.5 -1.5 -5.5 -1 0 -1.8 -2.4 -2.1 -5.2 -0.3 -3.3 -1.3 -5.2 -2.4 -4.9 -2.4 0.3 -2.8 -2.3 -0.5 -3.8 2.8 -1.8 1.8 -6 -1.6 -6.9 -2.4 -0.7 -3.3 -2.3 -3.3 -6.4 0 -3.1 -0.7 -5.5 -1.3 -5.5 -0.8 0 -2.4 -4.1 -3.6 -9.1 -1.3 -5.1 -3.3 -9.5 -4.4 -10 -1.1 -0.5 -2.1 -2.8 -2.1 -5.2 0 -2.3 -0.8 -5.4 -1.6 -6.7 -1.1 -1.8 -1.6 -1.3 -1.6 2.6 0 3.1 -1 5.5 -2.4 6.2 -1.5 0.5 -2.4 2.9 -2.4 5.9 0 2.6 -0.7 4.9 -1.6 4.9 -0.8 0 -1.6 2.3 -1.6 5.1 0 2.8 -1.1 6 -2.4 7.3 -1.3 1.5 -2.4 4.6 -2.4 7.2 0 2.6 -0.7 5.2 -1.6 5.7 -0.8 0.5 -1.6 3.9 -1.6 7.3 0 3.4 -0.7 6.9 -1.6 7.3 -0.8 0.5 -1.6 3.9 -1.6 7.5 0 3.4 -0.7 6.4 -1.6 6.4 -0.8 0 -1.6 3.3 -1.6 7.3 0 5.1 -0.7 7.2 -2 7 -1.5 -0.3 -2.3 2 -2.6 6.5 -0.3 3.8 -1.1 6.9 -2.1 6.9 -0.8 0 -1.5 3.4 -1.5 7.5 0 4.1 -0.7 7 -1.5 6.5 -1.8 -1.1 -3.4 2.9 -3.4 9 0 2.6 -0.7 4.7 -1.6 4.7 -0.8 0 -1.6 3.3 -1.6 7.3 0 4.1 -0.7 7.3 -1.6 7.3 -0.8 0 -1.6 3.3 -1.6 7.3 0 5.4 -0.7 7.3 -2.4 7.3 -1.8 0 -2.4 1.8 -2.4 6.4 0 3.6 -0.7 7 -1.6 7.5 -0.8 0.5 -1.6 3.9 -1.6 7.5 0 3.4 -0.7 6.4 -1.6 6.4 -0.8 0 -1.6 2.9 -1.6 6.5 l0 6.5 20.6 0 20.4 0 -1 19.3 c-0.5 10.4 -1.3 30.2 -1.8 43.6 -0.5 13.5 -1.5 25.1 -2.4 25.9 -0.8 1 -1.5 13.1 -1.5 26.9 0 17.1 -0.7 24.6 -1.6 23 -1 -1.6 -1.6 6.5 -1.6 24.5 0 15.3 -0.7 25.9 -1.5 24.8 -1 -1.6 -1.6 -1.3 -2.3 1.6 -2.8 9.8 -3.6 9.5 25.8 9.5 l26.9 0 0.3 -99.1z"/>
  <path d="M895.2 1229.6 c-4.4 -1.3 -8.3 -2.9 -8.6 -3.9 -0.3 -0.8 -2 -1.6 -3.8 -1.6 -1.6 0 -3.1 -1 -3.1 -2 0 -1.1 -2.9 -3.6 -6.5 -5.2 -3.6 -1.8 -6.5 -3.9 -6.5 -4.7 0 -0.8 -1.8 -3.3 -4.1 -5.4 -2.3 -2.1 -4.1 -4.6 -4.1 -5.5 0 -0.8 -0.7 -1.6 -1.6 -1.6 -0.8 0 -1.6 -1.5 -1.6 -3.3 0 -1.8 -1.1 -3.8 -2.4 -4.2 -1.3 -0.7 -2.4 -2.8 -2.4 -4.9 0 -2.1 -0.7 -3.9 -1.6 -3.9 -0.8 0 -1.6 -2.9 -1.6 -6.4 0 -3.6 -0.7 -7 -1.6 -7.5 -0.8 -0.5 -1.6 -7.2 -1.6 -14.5 0 -10.4 0.7 -14.2 2.6 -15.8 1.3 -1.1 2.1 -3.4 1.8 -5.1 -0.5 -1.6 -0.2 -3.4 0.7 -3.9 0.8 -0.5 1.5 -2.3 1.5 -4.1 0 -1.6 1.1 -3.1 2.4 -3.1 1.3 0 2.4 -1 2.4 -2.3 0 -2.9 17.3 -20.6 20.2 -20.6 1.3 0 2.6 -1.1 3.3 -2.4 0.5 -1.3 2.4 -2.4 4.2 -2.4 1.8 0 3.3 -0.7 3.3 -1.5 0 -0.8 2 -1.8 4.6 -2.3 2.4 -0.5 7.5 -1.8 11.4 -2.9 6 -2 7.5 -1.8 11.6 0.7 2.6 1.5 6.9 2.8 9.5 2.8 2.6 0 6.4 1.5 8.3 3.3 2 1.8 4.2 3.3 5.2 3.3 2.9 0 24.5 22.2 24.5 25.1 0 1.5 0.8 2.6 1.6 2.6 1 0 1.6 1.8 1.6 3.9 0 2.1 1 4.2 2.1 4.7 2.6 0.8 2.4 42.3 -0.3 43.2 -1 0.3 -1.8 2.8 -1.8 5.4 0 2.6 -0.7 4.7 -1.6 4.7 -0.8 0 -1.6 1.8 -1.6 4.1 0 2.6 -1 4.1 -2.4 4.1 -1.3 0 -2.4 1.1 -2.4 2.4 0 1.5 -2.4 4.9 -5.2 7.8 -2.9 2.9 -6.5 7 -7.8 9 -1.3 2 -3.9 4.1 -5.7 4.6 -1.8 0.7 -3.6 1.6 -4.1 2.1 -2.4 3.1 -10.3 6.7 -14.5 6.7 -2.6 0 -5.4 0.8 -5.9 1.6 -1.3 2.1 -7.8 1.8 -18 -1z m24.5 -21.9 c0.5 -0.8 2.4 -1.6 4.2 -1.6 1.6 0 3.1 -1.1 3.1 -2.4 0 -1.3 -1.3 -2.4 -2.9 -2.4 -3.6 0 -8.5 -5.5 -8.5 -9.8 0 -1.8 -0.7 -3.3 -1.6 -3.3 -0.8 0 -1.6 -1.5 -1.6 -3.3 0 -1.8 -1.1 -3.8 -2.4 -4.2 -1.3 -0.7 -2.4 -2.8 -2.4 -4.9 0 -3.4 -0.8 -3.9 -5.7 -3.9 l-5.7 0 0 14.7 0 14.7 -6 0.2 c-3.4 0.2 -4.9 0.5 -3.3 1 1.5 0.3 2.8 1.5 2.8 2.3 0 0.8 1.5 1.5 3.3 1.5 1.8 0 3.3 0.8 3.3 1.6 0 1 4.9 1.6 11.3 1.6 6.4 0 11.9 -0.7 12.4 -1.6z m13.9 -5.9 c0 -1.3 -1.1 -2.3 -2.4 -2.3 -2.4 0 -3.4 3.4 -1.5 5.4 1.6 1.5 3.9 -0.3 3.9 -3.1z m9.8 -17.3 c1.8 -3.8 3.3 -9.1 3.3 -12.1 0 -2.9 0.8 -5.9 1.6 -6.4 1 -0.5 1.6 -6.9 1.6 -14 0 -7.5 -0.7 -12.9 -1.6 -12.9 -0.8 0 -1.6 -2.6 -1.6 -5.7 0 -3.1 -0.7 -5.7 -1.6 -5.7 -0.8 0 -1.6 -0.8 -1.6 -2 0 -2.4 -8 -9.5 -10.8 -9.5 -1.1 0 -2.3 -0.8 -2.6 -2 -0.8 -2.3 -26.8 -3.8 -39.7 -2.1 -6.2 0.7 -9 1.8 -9 3.4 0 1.8 4.1 2.3 22.8 2.3 14.2 0 22.8 0.7 22.8 1.6 0 1 1.8 1.6 4.1 1.6 2.6 0 4.1 1 4.1 2.4 0 1.3 0.8 2.4 1.6 2.4 1 0 1.6 1.8 1.6 3.9 0 2.1 1 4.2 2.1 4.7 1.6 0.5 1.6 1.5 0 4.2 -1.1 1.8 -2.1 5.5 -2.1 8.3 0 2.6 -0.7 4.9 -1.6 4.9 -0.8 0 -1.6 1.8 -1.6 4.1 0 2.3 -0.8 3.9 -1.6 3.8 -1 -0.3 -2.9 1.5 -4.4 3.9 -2.1 3.4 -2.4 5.2 -1 8.2 1 2.1 2.3 5.1 2.8 6.7 0.5 1.6 1.6 2.4 2.6 2 1 -0.5 1.6 0.7 1.6 2.8 0 3.3 2.6 7.8 4.4 7.8 0.2 0 2 -3.1 3.8 -6.9z m-69.9 -40.8 l0.5 -22.5 -3.3 3.4 c-2.9 2.9 -3.3 5.4 -3.3 29.1 0 19.7 0.5 26.9 2.4 30.4 2.4 4.6 2.4 4.4 2.8 -6.7 0.3 -6.2 0.7 -21.4 0.8 -33.6z m45.4 0.3 c0 -4.1 -0.2 -4.1 -11.4 -3.6 -10.4 0.5 -11.4 0.8 -11.4 4.1 0 3.3 0.8 3.6 11.4 3.6 11.1 0 11.4 -0.2 11.4 -4.1z"/>
  <path d="M4440 1220.9 c-0.5 -0.3 -0.8 -269 -0.8 -597 l0 -596.2 67.7 0 67.7 0 0 596.5 c0 476.1 -0.5 596.5 -2 596.7 -6 0.7 -132 0.8 -132.7 0z"/>
  <path d="M1439.5 648.7 l0 -477.4 132.2 0 132.2 0 0 477.4 0 477.4 -132.2 0 -132.2 0 0 -477.4z"/>
  <path d="M1834.4 648.7 l0 -477.4 371.3 0 371.3 0 0 94.7 0 94.7 -230.1 0 -230.1 0 0 96 0 95.8 203.5 -0.5 c112.1 -0.2 205.3 0 207.4 0.5 l3.6 0.8 -0.3 95.1 -0.5 95 -206.8 0.5 -206.9 0.3 0 95.5 0 95.5 228.2 0 c125.3 0 229 0.7 230.1 1.3 1.6 1.1 2 21.2 1.6 95.1 l-0.5 93.7 -370.8 0.5 -371 0.3 0 -477.4z"/>
  <path d="M2707.6 648.7 l0 -477.4 368.8 0 368.8 0 0 94.7 0 94.7 -228.5 0 -228.5 0 0 96 0 95.8 213 -0.5 213 -0.3 0 96.3 0 96.3 -213 0 -213 0 0 96 0 95.8 228.5 -0.5 228.5 -0.3 0 95.5 0 95.5 -368.8 0 -368.8 0 0 -477.4z"/>
  <path d="M3594.6 1122.5 c-0.5 -1.1 -0.7 -215.4 -0.5 -476.2 l0.5 -474.1 359.9 0 359.9 0 0 93.8 0 93.8 -229 0 -228.8 0 0 97.1 0 97.1 213.1 -0.5 c202.2 -0.3 213.3 -0.2 215.4 2.4 1.8 2.4 2.1 20.2 2.3 92.9 0 85 -0.2 90.1 -2.9 92.5 -2.8 2.6 -19.9 2.8 -213 2.8 -138.9 0 -210 -0.5 -210 -1.6 0 -0.8 -1.1 -1.6 -2.4 -1.6 -2.1 0 -2.4 12.1 -2.4 98.4 l0 98.2 228.8 0 229 0 0 93 0 93 -359.5 0.5 c-286.8 0.3 -359.7 0 -360.2 -1.6z"/>
  <path d="M4911.7 1081.9 c-16.5 -2.1 -50.6 -13.2 -51.9 -17 -1.1 -3.1 1.8 -37 3.4 -38.7 1 -1 4.9 0.5 10.3 3.9 15 9.1 23.8 12.7 44.2 17.5 22 5.2 52.1 -1 65.4 -13.5 12.6 -11.6 16.3 -33 8.6 -48.3 -7 -13.9 -15 -19.6 -45 -31.8 -5.9 -2.4 -16 -6.9 -22.5 -10 -6.5 -3.1 -12.2 -5.5 -12.7 -5.5 -0.5 0 -6.9 -4.1 -14.4 -9 -15.8 -10.3 -25 -19.9 -30.5 -31.8 -13.7 -28.7 -7.8 -62.5 14.4 -84.5 26.4 -25.9 77.7 -32 135.8 -16 13.4 3.8 13.5 3.9 11.8 24.5 -0.8 9.6 -2 18 -2.4 18.4 -0.5 0.5 -6.4 -1.8 -13.1 -5.1 -13.7 -6.5 -19.9 -8.3 -40.1 -11.8 -40.1 -6.7 -73.6 13.7 -69.7 42.6 2.3 15.5 10 23.3 34.8 35.1 9.5 4.6 17.6 8.2 18 8.2 1.1 0 16.6 7 34.9 16 17.5 8.5 21.4 11.1 32.5 21.9 27.6 27.4 25.9 79.5 -3.6 109.5 -4.9 4.9 -24.5 17.5 -27.3 17.5 -1.5 0 -3.3 0.5 -3.9 1.1 -6.9 6.9 -47.8 10.4 -76.9 6.9z"/>
  <path d="M5368.8 1082.2 c-33 -4.7 -62.2 -23.5 -73.9 -47.5 -9.5 -19.6 -9.1 -14.4 -10.4 -128.9 -0.7 -58.8 -0.8 -108.2 -0.3 -109.8 0.7 -2.6 2.9 -2.8 23.8 -2.4 l23 0.5 -0.5 94.7 c-0.3 81.9 0 96.8 2.3 110.2 4.4 25 12.7 36.7 32.6 45.9 17.6 8 46.2 7.8 61.9 -0.3 20.2 -10.4 28.7 -22.8 33 -49.1 2.3 -12.9 2.4 -26.3 1.5 -91.1 -0.7 -41.8 -1.3 -83.6 -1.5 -93 l-0.2 -17.1 19.4 0 19.4 0 0 103 c-0.2 56.8 -0.7 106.4 -1.3 110.2 -3.6 23.3 -14.7 42.4 -33.1 57.3 -5.4 4.2 -23.5 12.4 -34.1 15.2 -11.1 2.9 -47.7 4.4 -61.5 2.6z"/>
  <path d="M7820 1081.9 c-27.1 -3.4 -57.6 -18.9 -76.1 -38.7 -10.8 -11.4 -17.6 -22.5 -25.9 -41.9 -1.3 -3.1 -4.1 -12.7 -8.5 -29.4 -2.8 -11.1 -2.8 -60.5 0.2 -72.6 12.6 -52.9 40.3 -86.8 83.7 -102.7 29.2 -10.8 76.4 -10.8 117.3 0 13.9 3.6 14.4 4.4 11.9 24.8 -1.1 9.8 -2.4 18.1 -2.9 18.6 -0.5 0.7 -6.4 -1.6 -12.7 -4.9 -25.8 -12.9 -55.5 -15.5 -85.7 -7.8 -26.1 6.7 -49.1 28.7 -58.8 56.5 -7 19.9 -7.8 25.5 -7.7 52.2 0.2 20.7 0.8 28.7 3.4 38.5 3.4 12.7 11.6 32.5 13.4 32.5 0.7 0 2.4 2.4 4.2 5.4 1.6 2.8 4.7 6.7 6.9 8.5 2.1 1.8 6.2 5.2 9 7.8 6.9 5.9 19.1 11.6 32 14.9 18.8 4.7 53.5 2.9 69.7 -3.8 7 -2.9 21.5 -10.1 27.3 -13.5 3.3 -2.1 6.4 -3.3 6.9 -2.8 0.5 0.3 0.2 5.5 -0.7 11.3 -0.8 5.9 -1.6 14.4 -1.6 19.1 0 9.5 -1.1 13.5 -3.9 13.5 -1 0 -3.9 1.1 -6.4 2.4 -21.9 11.4 -60.5 16.3 -95 12.1z"/>
  <path d="M7090.8 1074.2 c-2.1 -3.3 -8.5 -13.7 -14.2 -23.2 -5.7 -9.5 -10.9 -17.5 -11.4 -18 -0.7 -0.5 -6.4 -8.8 -12.7 -18.8 -6.4 -9.8 -12.2 -18.6 -12.9 -19.6 -0.8 -0.8 -3.9 -5.7 -7 -10.6 -3.1 -4.9 -6.5 -10 -7.7 -11.1 -1.1 -1.1 -2.1 -2.6 -2.1 -3.3 0 -0.7 -1.8 -3.3 -4.1 -5.9 -2.3 -2.6 -4.1 -5.4 -4.1 -6.2 0 -0.7 -7 -1.3 -15.5 -1.3 l-15.5 0 0.2 28.2 c0.2 15.3 0.7 42.1 1.3 59.1 0.7 17.1 0.7 31.5 0.2 32 -0.5 0.7 -10.9 1.3 -23.3 1.6 l-22.5 0.7 -0.8 -122.4 c-0.3 -67.2 -0.8 -131.2 -1.1 -142 l-0.3 -19.6 52.2 -0.5 c69 -0.5 85.7 2.1 108.5 17.6 19.7 13.4 28.4 31.3 28.4 59.6 0 12.7 -0.8 18.3 -3.6 25.6 -5.1 13.2 -6.5 15.7 -16.6 25.8 -12.7 12.7 -16 15 -26.1 19.3 -4.9 2.1 -10.4 4.4 -12.2 5.2 -1.8 0.7 -4.6 1.8 -6 2.3 -3.6 1.1 -3.8 3.3 -0.5 6.5 1.5 1.3 6.5 8.3 11.4 15.7 4.9 7.2 12.9 18.9 17.8 25.9 4.9 7.2 9.6 14 10.6 15.2 1 1.1 7.5 10.3 14.4 20.1 6.9 10 13.1 18.3 13.5 18.8 4.2 3.8 18.1 25 17 25.9 -0.8 0.8 -12.7 1.8 -26.4 2.3 l-24.8 1 -3.8 -6z m-61.4 -151.3 c36.1 -5.4 52.1 -20.7 52.1 -49.8 0 -7 -0.7 -13.2 -1.5 -13.7 -0.7 -0.5 -1.8 -2.9 -2.3 -5.4 -1.3 -6.4 -11.6 -18 -19.6 -21.7 -8.6 -4.2 -27.7 -6.5 -53.7 -6.5 l-20.9 0 0 49.8 0 49.8 14.7 0 c8.2 0 22.2 -1.1 31.2 -2.4z"/>
  <path d="M5128.6 1077.5 c-1.5 -0.8 -1.6 -8.6 -0.5 -29.7 1.5 -33.5 2 -211.2 0.3 -216.9 l-1 -3.9 -37.7 0.7 -37.7 0.7 -0.5 -12.9 c-0.3 -7.3 0.3 -15 1.5 -17.6 l1.8 -4.6 99.6 0 99.6 0 -1.1 16 c-0.7 8.6 -1.5 16.3 -2 17.1 -0.3 0.7 -17.6 1.1 -38.2 1.1 l-37.5 0 0.3 124 c0.2 68.2 0 124.4 -0.3 124.7 -1.5 1.1 -44.9 2.4 -46.5 1.3z"/>
  <path d="M5569.9 953.1 c-0.3 -69 -0.5 -133.2 -0.5 -142.3 l0 -16.8 58.8 -0.5 c49.1 -0.3 61.4 0 74.3 2.3 34.4 6 57.9 19.4 76.5 43.2 5.2 6.7 14.2 24.8 17.1 34.4 13.2 43.4 8.6 101.2 -10.8 137.4 -3.8 6.7 -16.2 24 -20.9 28.9 -6.2 6.5 -20.2 16 -31.2 21.4 -28.6 13.9 -53 17.5 -121.8 17.6 l-41.3 0 -0.3 -125.7z m96 90.6 c23.5 -2.9 40.3 -8.2 47.7 -15 1.1 -1.1 2.8 -2.1 3.4 -2.1 3.3 0 24.6 -24.6 24.6 -28.4 0 -0.5 1.8 -4.7 3.9 -9.5 8.8 -19.1 10 -25.9 10 -60.9 0 -37.4 -1.3 -44.2 -11.6 -62.8 -11.4 -20.6 -31.7 -33.6 -59.6 -38.4 -16.5 -2.8 -65.1 -2.9 -67.9 -0.3 -1.6 1.8 -2.8 162.2 -1.3 195 l1.1 24.8 15 0 c8.2 0 23.8 -1.1 34.6 -2.4z"/>
  <path d="M5855.3 973.4 c0.3 -58.3 0.2 -121.9 -0.7 -141.5 -1 -25.8 -0.8 -36.1 0.5 -37.2 1.1 -0.8 36.6 -1.3 86.5 -1.1 l84.7 0.5 -0.5 11.4 c-0.3 6.4 -1.1 14 -1.8 17.1 l-1.1 5.7 -60.4 -0.7 -60.5 -0.7 -1 17.6 c-0.7 9.8 -1.1 29.4 -1.1 43.7 l0 26.1 57.6 -0.7 57.4 -0.7 -0.3 15.5 c-0.3 8.5 -0.8 16.5 -1.3 17.6 -0.5 1.5 -13.5 2 -57.1 2 l-56.3 0 0 48.3 0 48.5 63.8 -1.1 64 -1.3 -1.3 16.2 c-0.7 8.8 -1.6 16.5 -2.1 17 -0.7 0.7 -39 1.6 -85.5 2.3 l-84.2 1.1 0.8 -105.8z"/>
  <path d="M6073.4 1077.5 c-1.5 -1 -1.6 -8.3 -0.5 -30.5 2.1 -40.3 2 -149.5 -0.2 -204 -1.3 -34.8 -1.3 -45.7 0.3 -47.5 1.5 -1.8 7.2 -2.3 27.6 -2.3 l25.9 0 3.3 4.2 c2 2.4 3.4 5.4 3.4 6.5 0 1.3 0.5 2.3 1.3 2.3 0.7 0 2 1.6 2.9 3.8 2.8 5.7 15.7 29.5 17 31.3 1.1 1.5 9 16 15.7 28.6 1.8 3.1 3.4 6 3.9 6.5 0.5 0.5 2.6 4.6 4.9 9 2.3 4.6 4.4 8.5 4.9 9 0.8 0.8 4.2 6.7 9.3 16.3 1.6 3.1 3.3 6 3.8 6.5 0.5 0.5 2.1 3.3 3.8 6.2 1.5 2.8 4.1 7.7 5.7 10.4 1.5 2.9 3.1 5.7 3.6 6.2 0.5 0.5 2.1 3.4 3.8 6.5 5.2 9.8 8.5 15.5 9.3 16.3 0.5 0.5 1.8 2.6 2.8 4.9 1.1 2.3 4.2 8.2 7.2 13.1 2.8 4.9 7.3 13.1 10.1 18 2.6 4.9 6.7 11.8 8.8 15 2 3.4 3.8 6.7 3.8 7.3 0 0.8 1.5 3.1 3.1 5.2 2.9 3.8 2.9 3.1 2.4 -25.3 -0.3 -16.2 -1.5 -54.2 -2.3 -84.7 -1 -30.5 -1.8 -70.5 -2.1 -88.9 l-0.3 -33.5 20.1 -0.5 19.9 -0.5 0 142.2 0 142 -10.1 0 c-5.7 0 -17.5 0.5 -26.1 1.1 -14.7 0.8 -16 0.7 -17.1 -2.1 -0.5 -1.6 -1.5 -3.4 -2 -3.9 -0.5 -0.5 -2.3 -3.4 -3.9 -6.5 -5.1 -9.6 -8.5 -15.5 -9.3 -16.3 -0.5 -0.5 -2.1 -3.4 -3.9 -6.5 -1.6 -3.1 -5.1 -9.5 -7.7 -14.2 -2.6 -4.6 -6.4 -11.6 -8.5 -15.5 -2.1 -3.9 -5.2 -9.6 -7 -12.7 -1.6 -3.1 -3.4 -6 -3.9 -6.5 -0.7 -0.7 -2.9 -4.7 -10.4 -18.8 -1 -1.8 -2.1 -3.6 -2.6 -4.1 -0.5 -0.5 -2.1 -3.4 -3.9 -6.5 -8 -14.9 -12.7 -23.3 -16.5 -29.4 -2.3 -3.6 -4.1 -7 -4.1 -7.7 0 -0.8 -1.8 -3.9 -3.9 -7 -2 -3.1 -6.4 -10.4 -9.5 -16.3 -3.3 -5.9 -7.8 -14.2 -10.4 -18.8 -10.1 -18.1 -13.9 -24.8 -17.8 -32.6 -2.3 -4.4 -5.5 -9.8 -7 -11.8 -2.6 -3.6 -2.8 -3.1 -2.4 12.2 1.6 63.2 4.2 151 5.2 183.1 0.8 21.1 1 38.8 0.3 39.3 -1.5 1.6 -38.4 3.3 -40.5 1.8z"/>
  <path d="M6404 1077.6 c0 -0.8 0 -57.4 0.2 -126 l0.3 -124.7 -38.5 1 -38.5 1.1 0 -16 c0 -10.3 0.7 -16.6 2 -18 1.5 -1.5 25.9 -2 100.4 -2 l98.6 0 -0.5 16.8 -0.5 16.6 -37.7 0.5 -37.7 0.3 -1 18.4 c-1.5 23.2 -1.1 103.3 0.3 174.1 0.7 30 0.8 55.2 0.3 55.7 -1.5 1.6 -47.5 3.4 -47.7 2z"/>
  <path d="M6678.4 1077.6 c0 -0.8 0 -64.8 -0.2 -142.5 l-0.3 -141.2 56.1 -0.5 c47 -0.3 58.4 0 70 2.3 27.3 5.4 44.4 17.1 54.8 37.9 4.2 8.5 4.6 10.9 4.6 26.4 0 16.2 -0.3 17.8 -5.4 28.2 -2.9 6 -8 13.5 -11.3 16.8 -5.7 5.7 -18.8 15.3 -20.7 15.3 -0.7 0 -3.4 1 -6.2 2.3 -2.9 1.3 -7.3 2.9 -10.1 3.8 -4.4 1.5 -3.3 1.8 9 3.4 24.3 3.1 43.7 15.7 53 34.1 15.3 30.4 6.9 69.4 -20.1 91.2 -16.3 13.2 -31.8 19.1 -59.1 21.9 -17 1.8 -114.2 2.1 -114.2 0.5z m109.5 -34.1 c20.9 -3.9 30 -9.6 39 -24.5 5.2 -8.6 5.5 -10.3 5.5 -23.3 0 -12.4 -0.5 -15.2 -4.2 -21.4 -12.1 -20.6 -28.1 -26.1 -75.7 -26.1 l-30 0 0 38 c0 20.7 0.5 42.8 1.1 49 l1 10.9 24.8 0 c15.8 0 29.9 -1 38.5 -2.6z m-19.7 -129.6 c19.9 -2.1 31 -6.5 39.5 -16 10 -11.1 11.9 -15.8 11.9 -30.7 0 -11.8 -0.5 -14 -4.9 -21.2 -6.5 -10.3 -15.2 -15.8 -30 -19.3 -12.2 -2.6 -40.5 -3.6 -54.7 -1.6 l-7.5 1.1 0 44.6 0 44.7 14.5 0 c8 0 22 -0.8 31.2 -1.6z"/>
  <path d="M7352.9 1077 c-1.1 -1.1 -2.1 -3.4 -2.1 -5.1 0 -1.5 -0.7 -4.4 -1.5 -6.5 -0.8 -2.1 -2.6 -8 -4.1 -13.2 -6.5 -24.2 -8 -28.9 -11.6 -41.1 -2.1 -7.2 -4.1 -14.5 -4.4 -16.3 -0.5 -3.1 -2 -3.3 -51.2 -3.8 l-50.6 -0.3 -4.6 15 c-2.6 8.3 -5.2 16.3 -5.9 17.6 -0.7 1.5 -1.8 5.9 -2.4 9.8 -0.7 4.1 -1.8 8.2 -2.4 9 -0.7 1 -1.8 4.6 -2.3 8.2 -1.6 8.5 -5.9 22.4 -8 25 -1.1 1.3 -7.7 2 -22.5 2 -22.2 0 -23.3 -0.5 -19.6 -7.8 2.8 -5.4 4.9 -11.1 10 -26.4 2.8 -8.5 5.7 -17 6.5 -18.8 0.8 -1.8 4.1 -11.8 7.5 -22 3.3 -10.3 7.2 -21.7 8.8 -25.3 1.6 -3.6 3.4 -9.1 4.1 -12.2 0.7 -3.1 1.8 -6.7 2.4 -8.2 1.3 -2.4 4.9 -13.2 12.4 -36.7 2.3 -7.2 6 -17.8 8 -23.7 2.1 -5.9 6.9 -19.7 10.6 -31 3.8 -11.3 7.3 -21.9 8 -23.7 0.8 -1.8 2.9 -8.3 4.7 -14.7 7.2 -23.7 9.1 -29.4 11.1 -31.5 1.6 -1.5 9.3 -2 31.2 -1.6 l28.9 0.5 2.8 8.2 c2.8 8.5 5.2 16.2 11.3 36.7 2 6.7 4.9 16.3 6.5 21.2 1.6 4.9 4.6 14.5 6.5 21.2 2 6.7 4.9 16.3 6.5 21.2 1.6 4.9 4.6 14.5 6.5 21.2 2 6.7 4.1 13.7 4.9 15.5 0.7 1.8 4.7 14.4 9 27.7 4.2 13.5 9 28.2 10.6 32.6 1.6 4.6 5.7 17 9 27.7 9 29.4 9.6 30.8 10.8 32.6 0.7 1 1.6 5.1 2.3 9.5 l1.1 7.7 -16.2 0 c-9 0 -19.6 0.5 -23.5 1 -4.7 0.7 -7.8 0.2 -9.1 -1.1z m-35.7 -119 c0.5 -0.5 -1 -7.5 -3.3 -15.5 -5.1 -17.8 -8.8 -31.2 -10 -36.7 -0.5 -2.3 -1.5 -4.7 -2.1 -5.7 -0.8 -0.8 -1.8 -5.1 -2.4 -9.5 -0.7 -4.2 -1.8 -8.2 -2.6 -8.6 -0.8 -0.5 -1.5 -2.1 -1.5 -3.8 0 -1.6 -1.1 -6.7 -2.4 -10.9 -1.3 -4.4 -4.2 -14.5 -6.5 -22.7 -2.3 -8 -4.9 -16.2 -5.5 -18 -1.6 -3.8 -1.1 -4.6 -6.5 13.1 -8.3 27.4 -12.1 39.3 -13.4 42.4 -0.7 1.8 -3.6 10.9 -6.4 20.4 -2.8 9.5 -5.9 18.9 -6.5 21.2 -1.1 3.6 -7.2 23.7 -9.1 31.3 -0.7 2 0.5 2.9 3.8 3.4 6.2 1.1 73.4 0.5 74.6 -0.5z"/>
  <path d="M7432.4 1077.8 c0 -0.8 0 -64.3 0 -141 -0.2 -76.7 -0.2 -140.5 0 -141.5 0 -1.6 6.5 -2.1 26.6 -2.1 30.8 0 27.9 -1.5 38.7 18.8 3.9 7.2 8.5 15.7 10.3 18.8 1.8 3.1 5.4 9.8 8 14.7 2.8 4.9 5.5 9.8 6.2 10.6 0.7 1 3.8 6.4 6.9 12.2 5.9 10.8 7.5 13.9 20.2 36.2 3.9 7 7.2 13.4 7.2 14.4 0 0.8 0.5 1.6 1.3 1.6 0.7 0 2 1.6 2.8 3.8 2.4 5.1 9.6 18.1 10.6 19.1 0.5 0.5 2.1 3.4 3.8 6.5 5.1 9.6 8.5 15.5 9.3 16.3 0.8 0.8 4.6 7.7 10.3 18.8 1.8 3.6 4.6 8.3 6.2 10.6 1.5 2.3 4.6 7.5 6.7 11.4 7.2 13.5 13.1 23 13.9 22.2 0.3 -0.3 0 -20.4 -1 -44.6 -1 -24 -2.1 -70.2 -2.8 -102.5 -0.5 -32.3 -1.6 -64.6 -2.1 -71.8 -0.8 -9.6 -0.7 -13.5 0.8 -15.2 1.6 -1.5 7.3 -2 21.4 -1.6 l19.3 0.5 -0.8 49.8 c-0.5 27.4 -0.8 72.6 -0.8 100.4 0 27.9 0.3 69 0.8 91.4 l0.8 40.8 -25.1 1.3 c-28.9 1.5 -27.7 1.8 -35.6 -13.2 -9.3 -17.5 -11.1 -20.7 -11.9 -21.5 -1 -1 -2.8 -4.2 -9.6 -16.8 -2.4 -4.7 -6.9 -12.2 -9.8 -16.8 -2.8 -4.6 -5.1 -8.8 -5.1 -9.3 0 -0.7 -2.9 -5.9 -6.5 -11.8 -3.6 -5.9 -6.5 -11.3 -6.5 -12.1 0 -0.8 -0.5 -1.8 -1.1 -2.1 -1.3 -0.5 -7.2 -10.8 -10.9 -18.8 -1 -2.1 -2.3 -3.8 -2.9 -3.8 -0.8 0 -1.3 -0.8 -1.3 -1.6 0 -1 -3.4 -7.8 -7.7 -15.2 -4.1 -7.3 -9.1 -16.3 -11.1 -19.9 -10.4 -18.9 -13.7 -25 -16.5 -30.2 -1.8 -3.1 -3.4 -6 -3.9 -6.5 -1 -1 -2.8 -4.2 -9.8 -17 -2.4 -4.7 -6.9 -12.2 -9.6 -16.6 l-5.1 -8 0.8 35.9 c0.5 19.7 1.6 52.9 2.4 73.4 0.8 20.7 2 58.6 2.6 84.5 l1.1 46.8 -8.2 0 c-4.6 0 -13.7 0.5 -20.6 1 -7.2 0.7 -12.6 0.5 -12.6 -0.3z"/>
  <path d="M7969.3 1078.5 c0 -6.2 -0.2 -281.9 0 -283.2 0 -1.6 5.9 -2.1 24 -2.1 l23.8 0 -1.1 57 -1 56.8 30.8 1.3 c17.1 0.7 46.8 0.7 66.1 0 l35.3 -1.3 -0.2 -25.5 c-0.2 -14 -0.7 -38.8 -1.3 -55.3 -0.5 -16.3 -0.7 -30.5 -0.5 -31.3 1 -2.6 46 -2.1 46 0.5 -0.3 23.7 1.8 257.4 2.4 267.3 l1 14 -23 1.1 c-12.7 0.5 -23.8 0.7 -24.6 0 -1.1 -0.7 -1.3 -24.3 -0.5 -69.4 l1.1 -68.4 -60.2 0 c-33.1 0 -63 0.5 -66.3 1 l-6.2 1.1 0.2 39.3 c0.2 21.5 0.7 51.4 1.3 66.3 0.7 14.9 0.7 27.4 0.2 27.9 -0.8 1 -47.3 3.8 -47.3 2.8z"/>
  <path d="M5810.1 592.4 c-19.1 -3.6 -22.5 -4.6 -37 -10.8 -2.8 -1.3 -5.5 -2.3 -6 -2.3 -0.5 0 -5.9 -3.1 -11.9 -6.7 -21.1 -12.7 -37.7 -33.5 -45.4 -56 -6.2 -18.3 -7.2 -38.4 -7.5 -168.8 -0.2 -69.2 0 -126.3 0.3 -126.6 0.3 -0.3 14.2 -0.8 30.8 -1.1 l30.2 -0.7 0 129.7 c0 139.2 -0.2 137.3 8.3 159.5 3.1 7.8 3.9 9.3 12.6 19.4 15 17.6 47.7 26.4 81.1 21.9 33.8 -4.6 57.6 -27.4 64 -61.2 1.6 -8.6 2.1 -36.2 2.1 -112.6 0 -55.7 -0.3 -113.3 -0.8 -128.1 l-0.8 -26.9 23.3 -1.3 c12.9 -0.8 24.5 -1 25.8 -0.5 2 0.8 2.3 20.7 2.3 129.9 0 135.8 -0.5 146.7 -7.7 168.8 -5.1 15.2 -14.5 31 -24 39.8 -2.6 2.4 -5.9 5.5 -7.3 7 -4.1 4.2 -19.7 13.5 -29.5 17.8 -19.4 8.2 -30 10 -63.7 10.6 -17.5 0.3 -35.1 0 -39.2 -0.8z"/>
  <path d="M7554.8 592.4 c-14.7 -2.4 -26.9 -5.1 -30.2 -6.4 -1.8 -0.8 -7.5 -2.8 -12.7 -4.4 -5.4 -1.6 -13.1 -4.9 -17.1 -7.2 -8.6 -4.7 -8.2 -1.5 -5.4 -33.3 1 -12.2 2.4 -19.9 3.6 -20.7 2.3 -1.3 3.9 -0.7 18.6 8.2 8.6 5.2 14.9 8.3 28.1 13.4 12.4 4.7 27.1 6.9 48.6 6.7 21.2 0 23.8 -0.3 36.1 -4.9 12.4 -4.4 18 -8 25.8 -16.2 9.8 -10.3 13.2 -20.2 13.1 -38.2 0 -12.7 -0.5 -14.9 -5.5 -23.7 -5.4 -9.6 -13.1 -17.8 -18.3 -19.6 -1.6 -0.5 -2.9 -1.6 -2.9 -2.4 0 -0.8 -1 -1.5 -2.1 -1.5 -1.1 0 -4.6 -1.8 -7.7 -3.9 -3.1 -2.1 -7.5 -4.2 -9.8 -4.9 -4.6 -1.3 -6.9 -2.3 -19.6 -8.2 -4.9 -2.1 -13.7 -6 -19.6 -8.3 -20.1 -8.3 -42.1 -20.6 -55.2 -31 -4.2 -3.3 -18.3 -18 -18.3 -19.1 0 -0.7 -1 -2.1 -2 -3.3 -5.7 -5.9 -11.6 -22.8 -14.2 -39.7 -2.6 -17.6 2.6 -44.6 11.9 -60.2 4.6 -8 18.4 -22.7 27.1 -29.1 18.8 -13.5 53.4 -22.5 86.8 -22.5 23.3 0 50.8 4.2 77.2 11.9 15.3 4.6 17.1 5.5 17.1 10.4 0 10.9 -3.6 43.9 -4.9 45 -0.7 0.8 -7.5 -1.5 -14.9 -5.1 -19.4 -9.3 -29.7 -12.7 -46.8 -15.7 -19.1 -3.3 -34.9 -3.3 -49.8 0 -25.8 5.9 -40.5 17.6 -45.9 36.7 -3.3 11.9 -3.3 12.2 0.2 24.5 3.8 13.7 14.7 24.3 35.3 34.6 8.5 4.2 15.8 7.7 16.3 7.7 0.5 0 5.9 2.3 12.1 5.1 6 2.8 14.9 6.7 19.3 8.6 4.6 2.1 11.4 5.1 15.5 6.7 35.6 14.9 61.9 36.4 72.3 59.6 8 18 10.3 48.3 5.1 68.9 -2.4 9.5 -9.6 27.1 -11.9 29.1 -0.5 0.5 -3.1 3.9 -5.5 7.7 -14.9 21.7 -45 38.5 -80.3 44.6 -10 1.6 -59.1 1.6 -69.4 0z"/>
  <path d="M4781.9 586.7 c-1.1 -1.5 -1.1 -17.1 0.2 -55.7 2 -57 1.1 -175 -1.8 -260 -1.1 -30.2 -1.1 -48.6 -0.2 -49.6 2.3 -2.3 136.3 -3.4 155.2 -1.3 20.2 2.3 33.1 4.6 43.2 7.7 11.3 3.6 34.6 14.7 38.8 18.6 1.8 1.8 4.1 3.3 4.9 3.3 2 0 27.1 24.8 28.1 27.9 0.5 1.3 2.1 3.9 3.8 5.7 3.4 3.8 15.2 27.7 18.8 38.2 7.7 22.8 8.5 30.4 8.5 73.4 0 43.2 -0.2 45.4 -8.5 73.4 -6 21.1 -22.8 50.6 -37.5 66.3 -17.1 18.1 -43.6 34.1 -69.9 41.9 -28.9 8.8 -48.1 10.4 -129.3 11.6 -41.9 0.7 -52.9 0.3 -54.3 -1.5z m140.4 -45.7 c34.3 -7.2 59.1 -23.5 75.9 -49.8 7.5 -11.8 14.5 -27.3 16.2 -35.9 0.7 -3.1 1.8 -7.5 2.6 -9.8 2.1 -5.7 6.5 -43.4 6.5 -55.8 0 -27.9 -10.8 -72.5 -19.6 -81.3 -0.5 -0.5 -2.9 -3.9 -5.4 -7.7 -12.4 -18.1 -31.2 -29.4 -64 -38.2 -8.6 -2.4 -90.9 -3.4 -93 -1.1 -1.8 1.8 -2.9 165.5 -1.6 227.2 l1.1 57 34.6 -1 c21.7 -0.7 39 -2 46.7 -3.6z"/>
  <path d="M5151.3 587.1 c-0.5 -0.8 -0.8 -65.8 -0.7 -144.3 0.3 -93 -0.3 -155.2 -1.6 -178.4 -1 -19.6 -1.5 -37.4 -0.8 -39.7 1 -3.9 1 -3.9 29.9 -4.9 21.4 -0.7 29.5 -0.5 30.8 1 1.3 1.5 1.3 21.9 0.3 71.3 -1.6 80.5 -0.5 225.4 2.1 264.1 1.6 22.4 1.5 27.1 -0.3 28.9 -2.8 2.6 -58.1 4.6 -59.7 2z"/>
  <path d="M5348.6 586.1 c-0.5 -1.3 0 -35.4 1 -75.9 2.1 -76.1 2.3 -179.5 0.5 -222 l-1 -24.3 -49.3 0.3 -49.5 0.3 0 -20.2 c0 -14.4 0.7 -20.7 2.1 -21.9 2.4 -2.1 253.9 -4.2 257.2 -2.3 1.8 1.1 1.8 4.6 0 22.4 l-2.3 21.1 -48.3 -0.5 -48.3 -0.5 -1.1 45.7 c-1.3 54.5 0.2 218.2 2.4 251.2 1.1 18.8 1.1 23.8 -0.7 25.5 -3.3 3.4 -61.5 4.4 -62.8 1.1z"/>
  <path d="M6073 587.9 c-0.8 -0.3 -1.1 -54.7 -0.7 -123.2 0.3 -67.6 0 -149.2 -0.7 -181.5 -0.8 -32.3 -1.3 -59.6 -1 -60.5 0.7 -2 66.3 -4.9 70.8 -3.1 1.5 0.5 4.2 4.4 6.4 8.6 2.1 4.2 5.1 9.5 6.5 11.8 1.6 2.3 5.4 8.8 8.5 14.7 6 11.3 7.3 13.4 26.4 47.8 8.2 14.5 13.9 25 16.6 30.5 1.8 3.1 3.4 6 3.9 6.5 0.5 0.5 2.3 3.4 3.9 6.5 1.8 3.1 5.1 9.5 7.5 13.9 2.4 4.6 5.9 10.8 7.5 13.9 1.8 3.1 3.4 6 3.9 6.5 0.7 0.7 2.9 4.7 10.4 18.8 1 1.8 2.1 3.6 2.6 4.1 1 1 2.9 4.4 10.9 19.3 8.8 16.3 9.5 17.5 10.3 18.3 0.5 0.5 2.1 3.4 3.8 6.5 5.1 9.6 8.5 15.5 9.3 16.3 1 1 3.3 4.9 9.1 16.5 2.4 4.9 7 12.6 10 17.3 2.9 4.7 5.4 9.1 5.4 9.8 0 0.7 2.6 5.4 5.9 10.3 l5.5 9 -0.8 -34.3 c-0.5 -18.9 -1.6 -67.2 -2.6 -107.7 -1.8 -87.5 -4.1 -150.3 -5.5 -156 -0.7 -2.6 -0.2 -4.9 1.1 -5.9 1.1 -1 13.1 -2 27.4 -2.3 l25.3 -0.7 0 183.6 0 183.6 -31.8 1 c-31.8 0.8 -37.5 0.2 -37.5 -4.2 0 -1.3 -0.7 -2.4 -1.3 -2.4 -0.7 0 -2.1 -2 -3.1 -4.4 -1.1 -2.6 -4.9 -9.6 -8.6 -16 -3.6 -6.2 -7.5 -13.2 -8.6 -15.5 -1 -2.3 -2.3 -4.4 -2.8 -4.9 -0.8 -0.8 -4.1 -6.5 -9.3 -16.3 -1.6 -3.1 -3.3 -6 -3.8 -6.5 -0.5 -0.5 -2.1 -3.4 -3.8 -6.5 -5.1 -9.6 -8.5 -15.5 -9.3 -16.3 -0.5 -0.5 -2.1 -3.4 -3.9 -6.5 -4.2 -8.2 -11.6 -21.4 -20.7 -37.2 -4.4 -7.7 -8 -14.2 -8 -14.5 0 -0.5 -1.3 -2.8 -3.1 -5.1 -1.6 -2.4 -6 -10.3 -10 -17.5 -3.9 -7.2 -7.5 -13.7 -8.2 -14.7 -1.5 -1.8 -10.8 -18.8 -14.4 -26.1 -1.3 -2.6 -3.8 -6.7 -5.2 -9 -1.6 -2.3 -5.4 -9 -8.6 -15 -7.8 -14.5 -10 -18.3 -10.9 -19.3 -0.5 -0.5 -3.1 -5.2 -5.9 -10.6 -2.9 -5.4 -8.3 -15.3 -12.1 -22 -3.9 -6.7 -8.5 -14.9 -10.1 -18 l-3.3 -5.7 1 29.4 c0.5 16.2 1.3 47.8 1.8 70.2 1 50.6 3.6 123.7 5.9 172.8 1.5 31 1.5 37.5 -0.3 39.3 -1.6 1.6 -9.3 2.3 -26.4 2.8 -13.2 0.3 -24.6 0.3 -25.5 0z"/>
  <path d="M6453.2 586.6 c-1.3 -1.3 -1.1 -22.5 0.2 -67.7 1.5 -49.9 1.5 -91.1 0 -169.6 -1 -57 -2.3 -108.4 -2.8 -114.2 -0.5 -5.9 -0.2 -11.4 0.5 -12.4 1.6 -2.1 57.4 -4.4 60.7 -2.4 1.8 1.1 1.8 8.6 0.3 45.4 -3.3 78.2 -2.3 202.9 2.1 301.8 0.5 9 0.3 17.1 -0.3 18.1 -1.8 2.6 -58.6 3.8 -60.7 1.1z"/>
  <path d="M6662.9 585.9 c-1.3 -1.5 -2.4 -3.9 -2.4 -5.2 0 -2.6 -4.1 -17.3 -6.5 -23.3 -0.8 -1.8 -2.1 -6.2 -2.9 -9.8 -1 -3.6 -3.6 -13.1 -6 -21.2 -2.4 -8 -5.2 -18.1 -6.2 -22.4 -1.1 -4.1 -2.4 -8.2 -3.3 -8.8 -0.7 -0.7 -1.1 -2.4 -1.1 -4.1 0 -1.6 -1 -6.2 -2.3 -10 -1.3 -3.9 -3.6 -11.4 -5.1 -16.8 -1.5 -5.4 -3.4 -11.3 -4.1 -13.1 -0.7 -1.8 -2.9 -9.1 -4.9 -16.3 -2.1 -7.2 -5.1 -17.1 -6.5 -22 -1.6 -4.9 -4.6 -14.5 -6.5 -21.2 -5.9 -20.1 -8.3 -28.1 -11.4 -37.5 -1.6 -4.9 -4.6 -14.5 -6.5 -21.2 -2 -6.7 -4.1 -13.7 -4.9 -15.5 -0.7 -1.8 -2.6 -7.7 -4.1 -13.1 -1.5 -5.4 -3.3 -11.3 -4.1 -13.1 -0.7 -1.8 -2.9 -9.1 -4.9 -16.3 -2 -7.2 -4.7 -16 -6 -19.6 -4.7 -12.7 -9.8 -31.7 -8.8 -33.1 0.5 -0.8 14.7 -2 31.5 -2.6 24 -0.8 30.7 -0.7 31.8 1 1.3 2 6.2 19.6 11.1 38.8 2.8 11.4 11.9 46.5 13.9 53 2.4 8.6 11.8 43.9 12.6 48.1 0.5 2.3 1.5 4.9 2.1 5.7 0.7 1 1.8 4.6 2.3 8.2 0.7 3.6 2.3 9.8 3.4 13.9 1.1 4.1 3.4 11.8 4.9 17.1 1.5 5.4 4.1 14.5 5.7 20.4 1.8 5.9 4.9 17.6 7.2 26.1 2.3 8.5 5.5 21.1 7.5 27.7 5.7 20.6 8.3 29.9 9.8 35.9 3.8 14.9 7 25.6 8.8 29.7 l2 4.4 2.1 -7.7 c4.4 -16 7.2 -25.8 9.3 -32.6 1.3 -3.8 2.3 -8.3 2.3 -10 0 -1.6 0.5 -3.4 1.1 -4.1 0.8 -0.7 2.1 -4.7 3.3 -8.8 2.1 -8.8 6.5 -25 8.6 -32.2 3.3 -11.3 11.8 -41.5 13.9 -49 1.1 -4.4 10 -36.1 19.6 -70.2 9.6 -34.1 18.4 -66.1 19.6 -71 1.1 -4.9 2.9 -11.9 3.9 -15.5 1 -3.6 2.6 -9.5 3.6 -13.1 1 -3.6 2.6 -8.5 3.4 -10.8 l1.5 -4.2 26.4 -1 c14.5 -0.5 27.1 -0.3 27.9 0.5 1.3 1.3 -1.5 11.9 -8.8 34.3 -1.6 4.9 -4.6 14.5 -6.5 21.2 -2 6.7 -4.2 13.7 -4.9 15.5 -0.8 1.8 -3.8 10.9 -6.5 20.4 -2.8 9.5 -5.7 18.9 -6.5 21.2 -2 6 -14.4 46.4 -18.3 59.6 -1.8 6.4 -4.7 15.2 -6.2 19.6 -1.6 4.6 -7.5 22.5 -13.1 40 -5.5 17.5 -12.6 39.2 -15.5 48.1 -2.9 9 -7 21.9 -9 28.6 -2 6.7 -5.4 17.8 -7.3 24.5 -2.1 6.7 -4.9 16.5 -6.5 21.5 -1.5 5.1 -3.6 10 -4.6 10.8 -1.1 0.8 -18.6 2 -39 2.3 -33.3 0.7 -37.4 0.5 -39.7 -2z"/>
  <path d="M6896.7 587.4 c-1.3 -0.8 -1.3 -13.4 0.3 -50.8 1.8 -43.9 1.6 -153.9 -0.5 -295.9 l-0.3 -19.6 110 -1.3 c60.5 -0.8 110.5 -0.8 111.3 0 1.3 1.3 -1.3 42.9 -2.9 44.6 -1 1 -136.4 0.2 -147.5 -1 l-9.1 -1 -1 6.2 c-0.7 3.6 -1.6 29.1 -2.1 56.8 l-1.1 50.4 74.9 -0.7 74.9 -0.7 -0.5 21.2 c-0.3 11.8 -1.3 21.9 -2 22.7 -0.8 0.7 -34.1 1.3 -74.1 1.1 l-72.8 -0.3 0 62.3 0 62.2 82.3 -0.5 c45.2 -0.3 82.7 -0.2 83.2 0.3 1.1 1.1 -2.3 39.7 -3.8 41.9 -1.1 1.8 -216.2 3.6 -219.2 1.8z"/>
  <path d="M7180.9 586.6 c-1 -1.1 -0.8 -31.8 0.5 -79 1.8 -73.9 1 -147.5 -3.1 -258.8 l-1 -27.9 61 -1 c58.9 -1.1 87.3 0 104.3 3.8 11.6 2.6 25 7 29.4 9.8 2.3 1.3 6.7 3.8 10 5.4 5.9 3.1 25.9 21.5 25.9 24 0 0.8 1 2.4 2.1 3.6 2.8 3.1 6.7 11.9 10.1 23.3 4.2 13.5 4.2 45.4 0.2 57.9 -7.5 23.3 -21.7 41.8 -42.1 54.8 -11.9 7.7 -24.3 13.7 -28.1 13.7 -1.3 0 -2.8 0.7 -3.3 1.5 -0.5 0.8 -3.6 2 -6.7 2.4 l-5.7 1.1 6.9 10.1 c3.8 5.5 7.2 10.4 7.8 10.9 0.5 0.5 4.6 6.4 9 13.1 4.4 6.7 8.5 12.6 9 13.1 0.5 0.5 4.6 6.4 9 13.1 4.6 6.7 9 13.1 9.8 14.2 4.1 5.1 5.2 6.7 10.6 15.2 6 9.6 6.2 9.6 12.2 17.1 2.3 2.8 4.1 5.4 4.1 5.9 0 0.5 1.5 2.8 3.3 4.9 4.6 5.5 4.9 6 13.5 17.8 4.2 5.9 8.3 11.4 9 12.2 7.7 9.8 10.1 13.7 10.1 15.8 0 2.1 -5.1 2.8 -33.3 3.8 -18.4 0.7 -33.9 0.8 -34.8 0.3 -0.8 -0.5 -2.9 -3.9 -4.7 -7.5 -1.6 -3.8 -3.6 -6.7 -4.2 -6.7 -0.8 0 -1.3 -0.8 -1.3 -1.8 0 -2.1 -14.9 -26.6 -16.6 -27.3 -0.8 -0.3 -1.3 -1.3 -1.3 -2.1 0 -0.8 -2 -4.4 -4.4 -7.8 -7 -9.8 -8.2 -11.3 -19.3 -28.6 -5.9 -9 -11.6 -17.8 -13.1 -19.6 -1.3 -2 -8.5 -12.6 -15.8 -23.8 -7.5 -11.3 -15.7 -23.2 -18.3 -26.4 l-4.6 -6.2 -18.6 0 -18.6 0 0.2 49.5 c0.2 27.1 0.7 61.4 1.3 76.2 0.8 18 0.5 27.6 -0.7 28.9 -2.3 2.6 -57.6 3.6 -59.7 1.1z m120 -199.9 c22.8 -4.1 38 -11.1 50.1 -22.5 5.1 -4.9 11.3 -16 11.3 -20.1 0 -1.5 0.8 -3.3 1.6 -3.8 1 -0.5 1.6 -7.3 1.6 -15.2 0 -13.9 -2 -22.7 -7.7 -33.5 -3.3 -6.5 -15.2 -19.1 -18 -19.1 -1.1 0 -2.1 -0.7 -2.1 -1.3 0 -0.7 -3.1 -2.1 -6.9 -3.3 -19.9 -5.9 -28.9 -6.9 -60.4 -6.9 l-32.3 0 0 63.7 0 63.7 26.4 0 c14.5 0 30.8 -0.8 36.2 -1.8z"/>
  <path d="M7789 588 c-1.1 -0.3 -1.5 -41 -1.1 -124.2 0.3 -67.9 -0.2 -149.7 -1 -181.5 -0.8 -31.8 -1.3 -58.8 -0.8 -59.7 0.7 -2 55.8 -4.6 60.4 -2.8 2 0.8 2.3 3.1 1.5 14.2 -0.5 7.3 -1.5 61 -2 119.3 -1 95.1 0.5 186.1 3.4 221.1 0.5 4.9 0.3 9.8 -0.5 10.8 -1 1.8 -55.7 4.2 -59.9 2.8z"/>
  <path d="M7987.1 587.5 c-0.2 -0.5 0 -73.4 0.2 -162.4 l0.3 -161.6 -50.3 0.5 -50.1 0.7 0.8 -20.7 c0.7 -11.4 1.6 -21.2 2.3 -22 0.8 -0.7 58.9 -1.6 129.3 -2.3 101 -0.8 127.6 -0.5 127.8 1.1 0.5 5.7 -0.5 38.4 -1.3 41 -0.8 2.9 -2.6 2.9 -49.8 1.8 l-49 -1.1 0.5 162.2 c0.7 161.1 0.7 162.1 -2.6 162.4 -8.2 0.8 -57.9 1.3 -58.1 0.5z"/>
  <path d="M8269.6 585.6 c-0.2 -1.1 -0.2 -35.3 0 -75.7 l0.2 -73.6 -10.4 -20.2 c-5.9 -11.1 -13.9 -26.4 -17.8 -34.1 -4.1 -7.7 -11.1 -20.9 -15.5 -29.4 -7.5 -14.4 -10.9 -20.7 -25 -46.5 -2.9 -5.4 -7.8 -14.5 -11.1 -20.4 -3.1 -5.9 -6.2 -11.3 -6.9 -12.2 -0.7 -0.8 -3.8 -6 -6.7 -11.4 -7.2 -13.2 -11.8 -21.4 -16.8 -30.4 -3.4 -5.9 -3.9 -8 -2.3 -9.1 2.1 -1.8 59.2 -5.5 62.5 -4.4 1.6 0.7 7.3 12.1 28.6 57 5.5 11.8 10.9 22.8 11.9 24.8 1.1 2.1 11.3 22 22.4 44.4 11.3 22.5 20.7 40.8 21.2 40.8 0.5 0.2 1.6 -1.5 2.6 -3.6 1 -2 5.2 -10.1 9.6 -18.3 4.2 -8 10.4 -19.7 13.7 -26.1 3.3 -6.2 6.9 -12.9 8 -14.7 1 -1.8 5.1 -9.8 9.1 -18 3.9 -8 10.4 -21.7 14.7 -30.2 4.1 -8.5 8.5 -17 9.5 -18.8 2 -3.3 6.7 -12.9 12.1 -24.5 1.6 -3.6 3.8 -7.3 4.7 -8.3 1 -1 12.4 -2.1 27.4 -2.8 l25.6 -1.1 0 5.4 c0 3.1 -2 8.5 -4.6 12.7 -2.4 3.9 -6 10.1 -8 13.7 -6.5 12.4 -9.5 18 -10.3 18.8 -0.7 0.7 -2.9 4.7 -10.4 18.8 -1 1.8 -2.1 3.6 -2.6 4.1 -0.8 0.8 -1 1 -11.4 20.4 -3.8 7.2 -9.5 17.1 -12.4 22.2 -3.1 5.1 -5.5 9.6 -5.5 10.3 0 0.5 -2.4 4.7 -5.2 9.5 -2.9 4.7 -7.2 12.4 -9.5 16.8 -2.3 4.6 -4.6 8.5 -5.1 9 -0.5 0.5 -5.1 9 -10 18.8 -5.1 10 -11.1 21.5 -13.4 25.8 l-4.2 7.8 0 48.5 c0 26.6 0.8 60.5 1.6 75.1 1.3 20.1 1.3 27.3 -0.2 29.1 -2.6 3.1 -60.2 3.4 -60.2 0.3z"/>
 </g>
 <g fill="#000000">
 </g>
</svg>